<svg width="25" height="25" viewBox="0 0 25 25" fill="none" xmlns="http://www.w3.org/2000/svg">
<g clip-path="url(#clip0_646_160)">
<path d="M18.1006 0H6.89891C3.09485 0 0 3.095 0 6.89906V18.1008C0 21.905 3.09485 24.9999 6.89891 24.9999H18.1006C21.905 24.9999 24.9999 21.9049 24.9999 18.1008V6.89906C25 3.095 21.905 0 18.1006 0ZM22.7819 18.1008C22.7819 20.6819 20.6819 22.7817 18.1008 22.7817H6.89891C4.31792 22.7819 2.21811 20.6819 2.21811 18.1008V6.89906C2.21811 4.31806 4.31792 2.21811 6.89891 2.21811H18.1006C20.6818 2.21811 22.7817 4.31806 22.7817 6.89906V18.1008H22.7819Z" fill="white"/>
<path d="M12.4999 6.05838C8.94786 6.05838 6.05811 8.94813 6.05811 12.5002C6.05811 16.0521 8.94786 18.9417 12.4999 18.9417C16.052 18.9417 18.9418 16.0521 18.9418 12.5002C18.9418 8.94813 16.052 6.05838 12.4999 6.05838ZM12.4999 16.7235C10.1711 16.7235 8.27621 14.8289 8.27621 12.5001C8.27621 10.171 10.1709 8.27634 12.4999 8.27634C14.8289 8.27634 16.7237 10.171 16.7237 12.5001C16.7237 14.8289 14.8288 16.7235 12.4999 16.7235Z" fill="white"/>
<path d="M19.2121 4.17758C18.7847 4.17758 18.3649 4.35059 18.0631 4.65374C17.7598 4.9554 17.5854 5.37536 17.5854 5.80419C17.5854 6.2317 17.7599 6.65151 18.0631 6.95465C18.3647 7.25632 18.7847 7.43081 19.2121 7.43081C19.6409 7.43081 20.0594 7.25632 20.3625 6.95465C20.6657 6.65151 20.8387 6.23155 20.8387 5.80419C20.8387 5.37536 20.6657 4.9554 20.3625 4.65374C20.0609 4.35059 19.6409 4.17758 19.2121 4.17758Z" fill="white"/>
</g>
<defs>
<clipPath id="clip0_646_160">
<rect width="25" height="25" fill="white"/>
</clipPath>
</defs>
</svg>
