<svg width="25" height="25" viewBox="0 0 25 25" fill="none" xmlns="http://www.w3.org/2000/svg">
<g clip-path="url(#clip0_726_1097)">
<path d="M18.3594 4.44336H6.64062C5.42908 4.44336 4.44336 5.42908 4.44336 6.64062V18.3594C4.44336 19.5709 5.42908 20.5566 6.64062 20.5566H18.3594C19.5709 20.5566 20.5566 19.5709 20.5566 18.3594V6.64062C20.5566 5.42908 19.5709 4.44336 18.3594 4.44336ZM12.5 17.627C9.67331 17.627 7.37305 15.3267 7.37305 12.5C7.37305 9.67331 9.67331 7.37305 12.5 7.37305C15.3267 7.37305 17.627 9.67331 17.627 12.5C17.627 15.3267 15.3267 17.627 12.5 17.627ZM17.627 8.83789C16.8194 8.83789 16.1621 8.18062 16.1621 7.37305C16.1621 6.56548 16.8194 5.9082 17.627 5.9082C18.4345 5.9082 19.0918 6.56548 19.0918 7.37305C19.0918 8.18062 18.4345 8.83789 17.627 8.83789Z" fill="white"/>
<path d="M12.5 8.83789C10.4809 8.83789 8.83789 10.4809 8.83789 12.5C8.83789 14.5191 10.4809 16.1621 12.5 16.1621C14.5191 16.1621 16.1621 14.5191 16.1621 12.5C16.1621 10.4809 14.5191 8.83789 12.5 8.83789Z" fill="white"/>
<path d="M21.2891 0H3.71094C1.69182 0 0 1.69182 0 3.71094V21.2891C0 23.3082 1.69182 25 3.71094 25H21.2891C23.3082 25 25 23.3082 25 21.2891V3.71094C25 1.69182 23.3082 0 21.2891 0ZM22.0215 18.3594C22.0215 20.3785 20.3785 22.0215 18.3594 22.0215H6.64062C4.62151 22.0215 2.97852 20.3785 2.97852 18.3594V6.64062C2.97852 4.62151 4.62151 2.97852 6.64062 2.97852H18.3594C20.3785 2.97852 22.0215 4.62151 22.0215 6.64062V18.3594Z" fill="white"/>
</g>
<defs>
<clipPath id="clip0_726_1097">
<rect width="25" height="25" fill="white"/>
</clipPath>
</defs>
</svg>
