<svg width="20" height="20" viewBox="0 0 20 20" fill="none" xmlns="http://www.w3.org/2000/svg">
<g clip-path="url(#clip0_632_669)">
<path d="M15.8054 12.3897C15.396 11.9633 14.9021 11.7354 14.3787 11.7354C13.8595 11.7354 13.3614 11.9591 12.9351 12.3855L11.6012 13.7151C11.4914 13.656 11.3817 13.6011 11.2761 13.5463C11.1242 13.4703 10.9807 13.3985 10.8583 13.3225C9.6088 12.529 8.47331 11.4948 7.38426 10.1567C6.85662 9.48975 6.50204 8.92834 6.24455 8.35849C6.59069 8.0419 6.91149 7.71265 7.22386 7.39607C7.34205 7.27787 7.46024 7.15546 7.57843 7.03727C8.46487 6.15083 8.46487 5.00268 7.57843 4.11624L6.42606 2.96387C6.29521 2.83302 6.16013 2.69794 6.0335 2.56287C5.78023 2.30115 5.5143 2.031 5.23992 1.77773C4.83047 1.3725 4.34082 1.15723 3.82584 1.15723C3.31086 1.15723 2.81277 1.3725 2.39066 1.77773C2.38644 1.78195 2.38644 1.78195 2.38221 1.78618L0.947028 3.23403C0.406722 3.77433 0.0985794 4.43283 0.0310412 5.19685C-0.0702661 6.42943 0.292752 7.57758 0.571347 8.32894C1.25517 10.1736 2.27669 11.8831 3.80052 13.7151C5.64937 15.9228 7.87391 17.6661 10.415 18.8944C11.3859 19.3545 12.6818 19.8991 14.1296 19.9919C14.2183 19.9962 14.3111 20.0004 14.3956 20.0004C15.3707 20.0004 16.1896 19.65 16.8312 18.9535C16.8354 18.9451 16.8438 18.9409 16.8481 18.9324C17.0676 18.6665 17.3208 18.4259 17.5868 18.1684C17.7683 17.9953 17.954 17.8138 18.1355 17.6239C18.5534 17.1891 18.7729 16.6826 18.7729 16.1634C18.7729 15.6399 18.5492 15.1376 18.1228 14.7155L15.8054 12.3897ZM17.3166 16.8345C17.3124 16.8345 17.3124 16.8387 17.3166 16.8345C17.152 17.0118 16.9831 17.1722 16.8016 17.3495C16.5272 17.6112 16.2486 17.8856 15.9869 18.1937C15.5606 18.6496 15.0583 18.8649 14.3998 18.8649C14.3365 18.8649 14.2689 18.8649 14.2056 18.8607C12.9519 18.7805 11.7869 18.2908 10.9131 17.8729C8.52397 16.7163 6.42606 15.0743 4.68273 12.9933C3.24333 11.2584 2.28091 9.65438 1.64352 7.93215C1.25095 6.88109 1.10743 6.06219 1.17075 5.28972C1.21296 4.79585 1.40291 4.3864 1.75327 4.03604L3.19267 2.59663C3.39951 2.40246 3.61901 2.29693 3.83429 2.29693C4.10022 2.29693 4.3155 2.45734 4.45057 2.59241C4.45479 2.59663 4.45901 2.60086 4.46323 2.60508C4.72072 2.84568 4.96555 3.09473 5.22304 3.36066C5.35389 3.49574 5.48897 3.63081 5.62405 3.77011L6.77642 4.92248C7.22386 5.36992 7.22386 5.78359 6.77642 6.23103C6.65401 6.35345 6.53581 6.47586 6.4134 6.59405C6.05882 6.95707 5.72113 7.29476 5.3539 7.62401C5.34545 7.63245 5.33701 7.63667 5.33279 7.64511C4.96977 8.00813 5.03731 8.36271 5.11329 8.60331C5.11751 8.61598 5.12173 8.62864 5.12595 8.6413C5.42565 9.36734 5.84777 10.0512 6.48938 10.8658L6.4936 10.8701C7.65864 12.3052 8.88699 13.4239 10.242 14.2807C10.415 14.3905 10.5923 14.4791 10.7612 14.5636C10.9131 14.6395 11.0567 14.7113 11.1791 14.7873C11.1959 14.7957 11.2128 14.8084 11.2297 14.8168C11.3732 14.8886 11.5083 14.9224 11.6476 14.9224C11.998 14.9224 12.2175 14.7029 12.2892 14.6311L13.7329 13.1875C13.8764 13.0439 14.1043 12.8709 14.3702 12.8709C14.632 12.8709 14.8472 13.0355 14.9781 13.179C14.9823 13.1832 14.9823 13.1832 14.9865 13.1875L17.3124 15.5133C17.7472 15.9439 17.7472 16.3871 17.3166 16.8345Z" fill="#A8302E"/>
<path d="M10.8089 4.7574C11.9148 4.94313 12.9195 5.46656 13.7215 6.26857C14.5235 7.07059 15.0427 8.07522 15.2327 9.18116C15.2791 9.45975 15.5197 9.65392 15.7941 9.65392C15.8278 9.65392 15.8574 9.6497 15.8912 9.64548C16.2035 9.59483 16.4104 9.29935 16.3597 8.98698C16.1318 7.64888 15.4986 6.42898 14.5319 5.46233C13.5653 4.49569 12.3454 3.86252 11.0073 3.63458C10.6949 3.58393 10.4037 3.79076 10.3488 4.09891C10.2939 4.40705 10.4965 4.70675 10.8089 4.7574Z" fill="#A8302E"/>
<path d="M19.9756 8.82242C19.6 6.61899 18.5616 4.61395 16.966 3.01836C15.3704 1.42277 13.3653 0.384369 11.1619 0.00868772C10.8538 -0.0461871 10.5625 0.16487 10.5076 0.473013C10.457 0.785377 10.6638 1.07664 10.9762 1.13151C12.9432 1.46498 14.7372 2.39785 16.1639 3.82037C17.5907 5.24712 18.5193 7.0411 18.8528 9.00815C18.8992 9.28675 19.1398 9.48092 19.4142 9.48092C19.448 9.48092 19.4775 9.4767 19.5113 9.47248C19.8195 9.42604 20.0305 9.13056 19.9756 8.82242Z" fill="#A8302E"/>
</g>
<defs>
<clipPath id="clip0_632_669">
<rect width="20" height="20" fill="white"/>
</clipPath>
</defs>
</svg>
