<svg width="20" height="20" viewBox="0 0 20 20" fill="none" xmlns="http://www.w3.org/2000/svg">
<g clip-path="url(#clip0_632_685)">
<path d="M11.3357 14.0909C11.1312 14.11 10.9259 14.0638 10.7493 13.9591C10.6202 13.8266 10.5584 13.6426 10.5811 13.4591C10.5859 13.3063 10.6041 13.1542 10.6357 13.0045C10.6662 12.8329 10.7056 12.663 10.7538 12.4954L11.2902 10.65C11.3455 10.4678 11.3821 10.2805 11.3993 10.0909C11.3993 9.88634 11.4266 9.7454 11.4266 9.6636C11.438 9.29903 11.2823 8.94919 11.0038 8.7136C10.6613 8.45064 10.2347 8.32138 9.80383 8.34997C9.49504 8.35462 9.18863 8.40517 8.89473 8.49997C8.57352 8.59997 8.23563 8.71966 7.88109 8.85907L7.72656 9.45907C7.83109 9.42271 7.9584 9.38181 8.10383 9.33634C8.24258 9.29525 8.38641 9.2738 8.53109 9.27271C8.73406 9.25071 8.93836 9.30056 9.10836 9.41361C9.22383 9.55138 9.27801 9.73036 9.25836 9.90907C9.25785 10.0619 9.24109 10.2143 9.20836 10.3636C9.17652 10.5227 9.13563 10.6909 9.08563 10.8681L8.54473 12.7227C8.50113 12.8951 8.46625 13.0695 8.4402 13.2454C8.41895 13.396 8.40832 13.5479 8.40836 13.6999C8.40613 14.067 8.57398 14.4144 8.86289 14.6408C9.2107 14.9079 9.64336 15.0403 10.0811 15.0136C10.3893 15.0199 10.6964 14.9754 10.9902 14.8817C11.2477 14.7938 11.5917 14.6681 12.022 14.5045L12.1675 13.9317C12.0509 13.9801 11.9309 14.0196 11.8084 14.0499C11.6534 14.0853 11.4944 14.099 11.3357 14.0909Z" fill="#A8302E"/>
<path d="M11.9041 5.34089C11.6568 5.1137 11.3308 4.99147 10.995 4.99999C10.6594 4.99241 10.3338 5.11452 10.0859 5.34089C9.63156 5.73269 9.58081 6.41866 9.97265 6.87308C10.0076 6.91358 10.0454 6.95143 10.0859 6.98636C10.6036 7.44936 11.3865 7.44936 11.9041 6.98636C12.3585 6.59069 12.4061 5.90163 12.0104 5.44726C11.9775 5.4094 11.942 5.37386 11.9041 5.34089Z" fill="#A8302E"/>
<path d="M10 0C4.47715 0 0 4.47715 0 10C0 15.5229 4.47715 20 10 20C15.5229 20 20 15.5229 20 10C20 4.47715 15.5229 0 10 0ZM10 19.0909C4.97922 19.0909 0.909102 15.0208 0.909102 10C0.909102 4.97922 4.97922 0.909102 10 0.909102C15.0208 0.909102 19.0909 4.97922 19.0909 10C19.0909 15.0208 15.0208 19.0909 10 19.0909Z" fill="#A8302E"/>
</g>
<defs>
<clipPath id="clip0_632_685">
<rect width="20" height="20" fill="white"/>
</clipPath>
</defs>
</svg>
