<svg width="60" height="60" viewBox="0 0 60 60" fill="none" xmlns="http://www.w3.org/2000/svg">
<path d="M6.86609 25.8975C6.86609 25.4445 7.23336 25.0772 7.68641 25.0772H35.0091C35.4622 25.0772 35.8295 25.4445 35.8295 25.8975C35.8295 26.3505 35.4622 26.7178 35.0091 26.7178H7.68641C7.23336 26.7178 6.86609 26.3505 6.86609 25.8975ZM7.68641 31.5294H35.0091C35.4622 31.5294 35.8295 31.1621 35.8295 30.7091C35.8295 30.2561 35.4622 29.8888 35.0091 29.8888H7.68641C7.23336 29.8888 6.86609 30.2561 6.86609 30.7091C6.86609 31.1621 7.23336 31.5294 7.68641 31.5294ZM24.4303 49.1352H7.68641C7.23336 49.1352 6.86609 49.5025 6.86609 49.9555C6.86609 50.4086 7.23336 50.7758 7.68641 50.7758H24.4303C24.8833 50.7758 25.2506 50.4086 25.2506 49.9555C25.2506 49.5025 24.8833 49.1352 24.4303 49.1352ZM7.68641 45.9642H19.8818C20.3348 45.9642 20.7021 45.597 20.7021 45.1439C20.7021 44.6909 20.3348 44.3236 19.8818 44.3236H7.68641C7.23336 44.3236 6.86609 44.6909 6.86609 45.1439C6.86609 45.597 7.23336 45.9642 7.68641 45.9642ZM7.68641 41.1525H19.8818C20.3348 41.1525 20.7021 40.7852 20.7021 40.3322C20.7021 39.8791 20.3348 39.5119 19.8818 39.5119H7.68641C7.23336 39.5119 6.86609 39.8791 6.86609 40.3322C6.86609 40.7852 7.23336 41.1525 7.68641 41.1525ZM7.68641 36.3409H35.0091C35.4622 36.3409 35.8295 35.9736 35.8295 35.5206C35.8295 35.0675 35.4622 34.7003 35.0091 34.7003H7.68641C7.23336 34.7003 6.86609 35.0675 6.86609 35.5206C6.86609 35.9736 7.23336 36.3409 7.68641 36.3409ZM58.5468 53.0646C58.8337 53.6809 58.9674 54.2848 58.9674 54.9649V57.7459C58.9674 58.7302 58.1666 59.531 57.1823 59.531H55.691C54.7067 59.531 53.906 58.7302 53.906 57.7459V54.9649C53.906 54.2849 54.0396 53.6811 54.3264 53.0646L54.5019 52.6876C54.0561 52.2217 53.7814 51.5909 53.7814 50.8968C53.7814 49.7536 54.5252 48.7815 55.5541 48.4373V44.9708L52.0278 45.9157V52.808C52.0278 53.096 51.8766 53.363 51.6297 53.5113C48.4681 55.4092 44.7377 56.4124 40.8423 56.4124C40.8399 56.4124 40.8376 56.4124 40.8351 56.4124H1.85352C1.40047 56.4124 1.0332 56.0452 1.0332 55.5921V4.81641C1.0332 4.36336 1.40047 3.99609 1.85352 3.99609H28.5084C28.8971 1.9827 30.6834 0.46875 32.7767 0.46875C34.8936 0.46875 36.6609 1.98973 37.0457 3.99609H40.842C41.2951 3.99609 41.6623 4.36336 41.6623 4.81641V37.314C41.7467 37.3316 41.8314 37.3513 41.9171 37.3741L57.4248 41.5294C58.0996 41.7103 58.5529 42.3012 58.5529 42.9996C58.5529 43.698 58.0997 44.2889 57.4249 44.4697L57.1946 44.5314V48.4376C58.2235 48.7818 58.9674 49.7538 58.9674 50.897C58.9674 51.5473 58.7262 52.1419 58.3295 52.5975L58.547 53.0648L58.5468 53.0646ZM41.4924 38.9587C41.0425 38.838 40.6414 38.8383 40.1918 38.9587L25.1114 42.9994L40.1918 47.04C40.6415 47.1606 41.0428 47.1606 41.4923 47.04L51.7061 44.3033L41.2618 43.3591C40.8105 43.3182 40.4779 42.9195 40.5186 42.4683C40.5595 42.017 40.959 41.6837 41.4095 41.7251L56.3032 43.0716L56.5728 42.9993L41.4924 38.9586V38.9587ZM32.4373 7.53586V16.6212C32.4373 17.4611 33.1207 18.1444 33.9605 18.1444C34.8004 18.1444 35.4837 17.4611 35.4837 16.6212V5.63672H32.9301C33.8813 5.74652 34.6227 6.5557 34.6227 7.53586V14.3807C34.6227 14.8337 34.2554 15.201 33.8023 15.201C33.3493 15.201 32.982 14.8337 32.982 14.3807V7.53586C32.982 7.3882 32.8573 7.26363 32.7097 7.26363C32.562 7.26363 32.4373 7.3882 32.4373 7.53586ZM30.2006 3.99609H35.3564C35.008 2.90332 33.9834 2.10938 32.7767 2.10938C31.5833 2.10938 30.5523 2.90051 30.2006 3.99609ZM32.542 54.7718C31.6812 54.4093 30.8498 53.9889 30.0546 53.5114C29.8075 53.3631 29.6565 53.0961 29.6565 52.8081V45.9159L24.2594 44.4698C23.5845 44.2888 23.1314 43.698 23.1314 42.9996C23.1314 42.3012 23.5845 41.7104 24.2592 41.5295H24.2594L39.7672 37.3743C39.8527 37.3514 39.9375 37.3317 40.0217 37.3141V5.63672H37.1244V16.6212C37.1244 18.3657 35.7051 19.785 33.9605 19.785C32.216 19.785 30.7967 18.3657 30.7967 16.6212V7.53586C30.7967 6.5557 31.538 5.74652 32.4893 5.63672H2.67383V54.7718H32.542ZM50.3871 46.3555L41.917 48.6251C41.5504 48.7233 41.1963 48.7725 40.8421 48.7725C40.488 48.7725 40.1339 48.7233 39.7672 48.6251L31.2971 46.3555V52.3368C34.1154 53.9302 37.4022 54.7706 40.8346 54.7718H40.842C44.2771 54.7718 47.5667 53.9311 50.387 52.3366V46.3554L50.3871 46.3555ZM55.4219 50.897C55.4219 51.4221 55.8492 51.8494 56.3743 51.8494C56.8994 51.8494 57.3268 51.4221 57.3268 50.897C57.3268 50.3719 56.8995 49.9445 56.3743 49.9445C55.8491 49.9445 55.4219 50.3718 55.4219 50.897ZM57.3268 54.9652C57.3268 54.521 57.2468 54.1597 57.0595 53.7571L56.9093 53.4342C56.7365 53.4705 56.5577 53.49 56.3744 53.49C56.2313 53.49 56.0912 53.4778 55.9543 53.4554L55.814 53.757C55.6266 54.1597 55.5467 54.521 55.5467 54.9652V57.7461C55.5467 57.8231 55.6142 57.8906 55.6911 57.8906H57.1824C57.2594 57.8906 57.3269 57.8231 57.3269 57.7461V54.9652H57.3268ZM7.68641 21.018H16.9385C17.3915 21.018 17.7588 20.6508 17.7588 20.1977V13.6035C17.7588 13.5625 17.7548 13.5225 17.7489 13.4831L19.7431 11.4889C20.0634 11.1686 20.0634 10.6492 19.7431 10.3288C19.4227 10.0086 18.9034 10.0086 18.583 10.3288L13.1669 15.745L12.0553 13.8195C11.8286 13.4271 11.3272 13.2929 10.9347 13.5192C10.5424 13.7459 10.408 14.2475 10.6345 14.6398L12.2807 17.4911C12.4084 17.712 12.6312 17.8609 12.884 17.8942C12.9199 17.8989 12.9555 17.9012 12.9911 17.9012C13.2073 17.9012 13.4164 17.8158 13.5712 17.661L16.1182 15.114V19.3775H8.50672V11.7659H14.0199C14.473 11.7659 14.8402 11.3986 14.8402 10.9455C14.8402 10.4925 14.473 10.1252 14.0199 10.1252H7.68641C7.23336 10.1252 6.86609 10.4925 6.86609 10.9455V20.1976C6.86609 20.6507 7.23336 21.0179 7.68641 21.0179V21.018Z" fill="#A8302E"/>
</svg>
