<svg width="60" height="60" viewBox="0 0 60 60" fill="none" xmlns="http://www.w3.org/2000/svg">
<g clip-path="url(#clip0_705_885)">
<path d="M59.0625 18.5409V11.4581L56.4356 10.7897C56.3241 10.4906 56.1984 10.1906 56.0606 9.8925L57.4472 7.55906L52.4391 2.55094L50.1056 3.93844C49.8084 3.80063 49.5075 3.675 49.2094 3.56344L48.5409 0.9375H41.4581L40.7906 3.56437C40.4925 3.67594 40.1916 3.80063 39.8944 3.93938L37.5609 2.55187L33.7659 6.34688C32.4356 5.27344 30.7941 4.6875 29.0625 4.6875C27.7659 4.6875 26.5453 5.01844 25.4803 5.59969C23.5828 2.70938 20.3794 0.9375 16.875 0.9375C11.1891 0.9375 6.5625 5.56406 6.5625 11.25C6.5625 11.5856 6.58594 11.9203 6.61875 12.2541C6.44531 12.2766 6.27187 12.2972 6.09844 12.3337C3.61687 12.8512 1.60125 14.8669 1.08375 17.3484C0.67125 19.3275 1.15219 21.3459 2.40469 22.8872C3.65813 24.4284 5.51531 25.3125 7.5 25.3125H15C15.5175 25.3125 15.9375 25.7334 15.9375 26.25V28.125C15.9375 28.6416 15.5175 29.0625 15 29.0625H8.4375C6.88688 29.0625 5.625 30.3244 5.625 31.875C5.625 33.4256 6.88688 34.6875 8.4375 34.6875H16.875C17.3925 34.6875 17.8125 35.1084 17.8125 35.625V45.9375H5.625C3.04031 45.9375 0.9375 48.0403 0.9375 50.625C0.9375 53.2097 3.04031 55.3125 5.625 55.3125H21.5625V59.0625H55.3125V24.5747L57.4472 22.4391L56.0606 20.1056C56.1984 19.8084 56.3241 19.5084 56.4356 19.2094L59.0625 18.5409ZM16.875 32.8125H8.4375C7.92 32.8125 7.5 32.3916 7.5 31.875C7.5 31.3584 7.92 30.9375 8.4375 30.9375H15C16.5506 30.9375 17.8125 29.6756 17.8125 28.125V26.25C17.8125 24.6994 16.5506 23.4375 15 23.4375H7.5C6.0825 23.4375 4.75594 22.8056 3.86063 21.7041C2.96531 20.6025 2.62219 19.155 2.91844 17.7309C3.28688 15.9684 4.7175 14.5369 6.48094 14.1694C7.90688 13.8713 9.35344 14.2153 10.4541 15.1106C11.5556 16.0059 12.1875 17.3325 12.1875 18.75H14.0625C14.0625 16.7653 13.1794 14.9091 11.6372 13.6556C10.725 12.9141 9.64406 12.4491 8.50312 12.2738C8.46187 11.9344 8.4375 11.5931 8.4375 11.25C8.4375 6.59812 12.2222 2.8125 16.875 2.8125C19.7728 2.8125 22.4175 4.29375 23.9625 6.70406C22.4906 8.07375 21.5625 10.0219 21.5625 12.1875H23.4375C23.4375 9.08531 25.9603 6.5625 29.0625 6.5625C30.4641 6.5625 31.785 7.07812 32.82 8.01094L33.9394 9.89437C33.8016 10.1925 33.6759 10.4916 33.5644 10.7916L30.9375 11.4591V18.5419L33.5644 19.2103C33.6759 19.5094 33.8016 19.8094 33.9394 20.1066L32.5528 22.44L33.5503 23.4375H19.6875V25.3125H21.5625V45.9375H19.6875V35.625C19.6875 34.0744 18.4256 32.8125 16.875 32.8125ZM12.1875 53.4375H10.3125V47.8125H12.1875V53.4375ZM14.0625 51.5625H25.3125V53.4375H14.0625V51.5625ZM27.1875 48.2278L32.5434 50.2359C32.7047 50.2969 32.8125 50.4525 32.8125 50.625C32.8125 50.7975 32.7047 50.9531 32.5425 51.0141L27.1875 53.0222V48.2278ZM25.3125 49.6875H14.0625V47.8125H25.3125V49.6875ZM2.8125 50.625C2.8125 49.0744 4.07437 47.8125 5.625 47.8125H8.4375V53.4375H5.625C4.07437 53.4375 2.8125 52.1756 2.8125 50.625ZM53.4375 57.1875H23.4375V55.3125H26.4206L33.2006 52.77C34.0894 52.4372 34.6875 51.5747 34.6875 50.625C34.6875 49.6753 34.0894 48.8128 33.2016 48.48L26.4206 45.9375H23.4375V25.3125H35.4253L37.5609 27.4481L39.8944 26.0606C40.1916 26.1984 40.4925 26.3241 40.7906 26.4356L41.4591 29.0625H48.5419L49.2103 26.4356C49.5084 26.3241 49.8094 26.1994 50.1066 26.0606L52.44 27.4481L53.4375 26.4497V57.1875ZM54.9806 17.6447L54.8231 18.1397C54.6553 18.6638 54.4331 19.1944 54.1631 19.7175L53.9231 20.1797L55.0913 22.1447L52.1447 25.0912L50.1806 23.9231L49.7194 24.1612C49.1944 24.4322 48.6637 24.6534 48.1387 24.8212L47.6437 24.9797L47.0841 27.1875H42.9169L42.3563 24.9806L41.8613 24.8222C41.3363 24.6544 40.8056 24.4331 40.2806 24.1622L39.8194 23.9241L37.8553 25.0922L34.9087 22.1456L36.0769 20.1806L35.8369 19.7184C35.5669 19.1953 35.3447 18.6647 35.1769 18.1406L35.0194 17.6456L32.8125 17.0841V12.9169L35.0194 12.3553L35.1769 11.8603C35.3447 11.3372 35.5669 10.8056 35.8378 10.2825L36.0769 9.82031L34.9087 7.85625L37.8553 4.90969L39.8194 6.07781L40.2806 5.83969C40.8056 5.56875 41.3363 5.3475 41.8613 5.17969L42.3563 5.02125L42.9159 2.8125H47.0831L47.6437 5.01937L48.1387 5.17781C48.6637 5.34562 49.1944 5.56687 49.7194 5.83781L50.1806 6.07594L52.1447 4.90781L55.0913 7.85438L53.9231 9.81844L54.1622 10.2806C54.4331 10.8047 54.6553 11.3353 54.8231 11.8584L54.9806 12.3534L57.1875 12.9159V17.0831L54.9806 17.6447Z" fill="#A8302E"/>
<path d="M45 6.5625C40.3472 6.5625 36.5625 10.3481 36.5625 15C36.5625 19.6519 40.3472 23.4375 45 23.4375C49.6528 23.4375 53.4375 19.6519 53.4375 15C53.4375 10.3481 49.6528 6.5625 45 6.5625ZM45 21.5625C41.3822 21.5625 38.4375 18.6187 38.4375 15C38.4375 11.3812 41.3822 8.4375 45 8.4375C48.6178 8.4375 51.5625 11.3812 51.5625 15C51.5625 18.6187 48.6178 21.5625 45 21.5625Z" fill="#A8302E"/>
<path d="M45 10.3125C42.4153 10.3125 40.3125 12.4153 40.3125 15C40.3125 17.5847 42.4153 19.6875 45 19.6875C47.5847 19.6875 49.6875 17.5847 49.6875 15C49.6875 12.4153 47.5847 10.3125 45 10.3125ZM45 17.8125C43.4494 17.8125 42.1875 16.5506 42.1875 15C42.1875 13.4494 43.4494 12.1875 45 12.1875C46.5506 12.1875 47.8125 13.4494 47.8125 15C47.8125 16.5506 46.5506 17.8125 45 17.8125Z" fill="#A8302E"/>
<path d="M27.1872 41.7993L25.975 40.5872L24.6494 41.9128L27.1872 44.4506L32.5375 39.1003L31.2119 37.7747L27.1872 41.7993Z" fill="#A8302E"/>
<path d="M27.1872 34.2993L25.975 33.0872L24.6494 34.4128L27.1872 36.9506L32.5375 31.6003L31.2119 30.2747L27.1872 34.2993Z" fill="#A8302E"/>
<path d="M34.6875 30.9375H51.5625V32.8125H34.6875V30.9375Z" fill="#A8302E"/>
<path d="M38.4375 34.6875H51.5625V36.5625H38.4375V34.6875Z" fill="#A8302E"/>
<path d="M34.6875 34.6875H36.5625V36.5625H34.6875V34.6875Z" fill="#A8302E"/>
<path d="M34.6875 38.4375H51.5625V40.3125H34.6875V38.4375Z" fill="#A8302E"/>
<path d="M49.6875 42.1875H51.5625V44.0625H49.6875V42.1875Z" fill="#A8302E"/>
<path d="M34.6875 42.1875H47.8125V44.0625H34.6875V42.1875Z" fill="#A8302E"/>
<path d="M39.375 47.8125C37.8244 47.8125 36.5625 49.0744 36.5625 50.625C36.5625 52.1756 37.8244 53.4375 39.375 53.4375C40.9256 53.4375 42.1875 52.1756 42.1875 50.625C42.1875 49.0744 40.9256 47.8125 39.375 47.8125ZM39.375 51.5625C38.8575 51.5625 38.4375 51.1416 38.4375 50.625C38.4375 50.1084 38.8575 49.6875 39.375 49.6875C39.8925 49.6875 40.3125 50.1084 40.3125 50.625C40.3125 51.1416 39.8925 51.5625 39.375 51.5625Z" fill="#A8302E"/>
<path d="M46.875 47.8125C45.3244 47.8125 44.0625 49.0744 44.0625 50.625C44.0625 52.1756 45.3244 53.4375 46.875 53.4375C48.4256 53.4375 49.6875 52.1756 49.6875 50.625C49.6875 49.0744 48.4256 47.8125 46.875 47.8125ZM46.875 51.5625C46.3575 51.5625 45.9375 51.1416 45.9375 50.625C45.9375 50.1084 46.3575 49.6875 46.875 49.6875C47.3925 49.6875 47.8125 50.1084 47.8125 50.625C47.8125 51.1416 47.3925 51.5625 46.875 51.5625Z" fill="#A8302E"/>
</g>
<defs>
<clipPath id="clip0_705_885">
<rect width="60" height="60" fill="white"/>
</clipPath>
</defs>
</svg>
