<svg width="60" height="60" viewBox="0 0 60 60" fill="none" xmlns="http://www.w3.org/2000/svg">
<g clip-path="url(#clip0_707_1222)">
<path d="M50 38.052V4C50 1.79086 48.2091 0 46 0H4C1.79086 0 0 1.79086 0 4V55C0 57.2091 1.79086 59 4 59H44.444C48.4225 60.8169 53.0996 60.1024 56.3543 57.1806C59.6089 54.2588 60.8219 49.6856 59.4431 45.5349C58.0642 41.3841 54.356 38.4457 50 38.052ZM4 2H46C47.1046 2 48 2.89543 48 4V8H2V4C2 2.89543 2.89543 2 4 2ZM4 57C2.89543 57 2 56.1046 2 55V10H48V38.052C43.6897 38.4381 40.0083 41.3203 38.599 45.412C37.1898 49.5037 38.3156 54.0415 41.474 57H4ZM49 58C44.0294 58 40 53.9706 40 49C40 44.0294 44.0294 40 49 40C53.9706 40 58 44.0294 58 49C57.9945 53.9683 53.9683 57.9945 49 58Z" fill="#A8302E"/>
<path d="M52.2004 44.4L46.8924 51.477L45.7074 50.292C45.315 49.913 44.6913 49.9185 44.3056 50.3042C43.9199 50.6899 43.9144 51.3136 44.2934 51.706L46.2934 53.706C46.4807 53.8939 46.7351 53.9997 47.0004 54H47.0714C47.361 53.9788 47.627 53.8328 47.8004 53.6L53.8004 45.6C54.0148 45.3142 54.0604 44.9357 53.92 44.6072C53.7797 44.2787 53.4747 44.0499 53.12 44.0072C52.7653 43.9645 52.4148 44.1142 52.2004 44.4Z" fill="#A8302E"/>
<path d="M5 6.00098C5.55228 6.00098 6 5.55326 6 5.00098C6 4.44869 5.55228 4.00098 5 4.00098C4.44772 4.00098 4 4.44869 4 5.00098C4 5.55326 4.44772 6.00098 5 6.00098Z" fill="#A8302E"/>
<path d="M9 6.00098C9.55228 6.00098 10 5.55326 10 5.00098C10 4.44869 9.55228 4.00098 9 4.00098C8.44772 4.00098 8 4.44869 8 5.00098C8 5.55326 8.44772 6.00098 9 6.00098Z" fill="#A8302E"/>
<path d="M13 6.00098C13.5523 6.00098 14 5.55326 14 5.00098C14 4.44869 13.5523 4.00098 13 4.00098C12.4477 4.00098 12 4.44869 12 5.00098C12 5.55326 12.4477 6.00098 13 6.00098Z" fill="#A8302E"/>
<path d="M35 6H45C45.5523 6 46 5.55228 46 5C46 4.44772 45.5523 4 45 4H35C34.4477 4 34 4.44772 34 5C34 5.55228 34.4477 6 35 6Z" fill="#A8302E"/>
<path d="M11.5188 18.952L17.9998 20.564V23C17.9998 24.1045 18.8953 25 19.9998 25H27.9998C29.1044 25 29.9998 24.1045 29.9998 23V20.564L35.9998 19.071V23C35.9998 23.5523 36.4475 24 36.9998 24C37.5521 24 37.9998 23.5523 37.9998 23V17V16.984C38.001 16.067 37.3754 15.2679 36.4848 15.049L24.4848 12.061C24.1685 11.981 23.8372 11.981 23.5208 12.061L11.5098 15.053C10.6198 15.2832 9.99886 16.0872 10.001 17.0065C10.0031 17.9258 10.6278 18.7259 11.5188 18.952ZM27.9998 23H19.9998L19.9878 19.674C22.583 18.7781 25.4031 18.7757 27.9998 19.667V23ZM23.9998 14L35.9998 17.009L29.6688 18.583C29.438 18.2192 29.094 17.9412 28.6898 17.792C25.6526 16.7346 22.3471 16.7346 19.3098 17.792C18.9074 17.9414 18.5647 18.2181 18.3338 18.58L11.9998 16.991L23.9998 14Z" fill="#A8302E"/>
<path d="M11 27C8.79086 27 7 28.7909 7 31C7 33.2091 8.79086 35 11 35C13.2091 35 15 33.2091 15 31C15 28.7909 13.2091 27 11 27ZM11 33C9.89543 33 9 32.1046 9 31C9 29.8954 9.89543 29 11 29C12.1046 29 13 29.8954 13 31C13 32.1046 12.1046 33 11 33Z" fill="#A8302E"/>
<path d="M11 37C8.79086 37 7 38.7909 7 41C7 43.2091 8.79086 45 11 45C13.2091 45 15 43.2091 15 41C15 38.7909 13.2091 37 11 37ZM11 43C9.89543 43 9 42.1046 9 41C9 39.8954 9.89543 39 11 39C12.1046 39 13 39.8954 13 41C13 42.1046 12.1046 43 11 43Z" fill="#A8302E"/>
<path d="M11 47C8.79086 47 7 48.7909 7 51C7 53.2091 8.79086 55 11 55C13.2091 55 15 53.2091 15 51C15 48.7909 13.2091 47 11 47ZM11 53C9.89543 53 9 52.1046 9 51C9 49.8954 9.89543 49 11 49C12.1046 49 13 49.8954 13 51C13 52.1046 12.1046 53 11 53Z" fill="#A8302E"/>
<path d="M17 29C17 29.5523 17.4477 30 18 30H41C41.5523 30 42 29.5523 42 29C42 28.4477 41.5523 28 41 28H18C17.4477 28 17 28.4477 17 29Z" fill="#A8302E"/>
<path d="M37 34C37.5523 34 38 33.5523 38 33C38 32.4477 37.5523 32 37 32H35C34.4477 32 34 32.4477 34 33C34 33.5523 34.4477 34 35 34H37Z" fill="#A8302E"/>
<path d="M18 34H31C31.5523 34 32 33.5523 32 33C32 32.4477 31.5523 32 31 32H18C17.4477 32 17 32.4477 17 33C17 33.5523 17.4477 34 18 34Z" fill="#A8302E"/>
<path d="M40 38H18C17.4477 38 17 38.4477 17 39C17 39.5523 17.4477 40 18 40H40C40.5523 40 41 39.5523 41 39C41 38.4477 40.5523 38 40 38Z" fill="#A8302E"/>
<path d="M35 42H33C32.4477 42 32 42.4477 32 43C32 43.5523 32.4477 44 33 44H35C35.5523 44 36 43.5523 36 43C36 42.4477 35.5523 42 35 42Z" fill="#A8302E"/>
<path d="M18 42C17.4477 42 17 42.4477 17 43C17 43.5523 17.4477 44 18 44H29C29.5523 44 30 43.5523 30 43C30 42.4477 29.5523 42 29 42H18Z" fill="#A8302E"/>
<path d="M34 48H18C17.4477 48 17 48.4477 17 49C17 49.5523 17.4477 50 18 50H34C34.5523 50 35 49.5523 35 49C35 48.4477 34.5523 48 34 48Z" fill="#A8302E"/>
<path d="M32 52H30C29.4477 52 29 52.4477 29 53C29 53.5523 29.4477 54 30 54H32C32.5523 54 33 53.5523 33 53C33 52.4477 32.5523 52 32 52Z" fill="#A8302E"/>
<path d="M26 52H18C17.4477 52 17 52.4477 17 53C17 53.5523 17.4477 54 18 54H26C26.5523 54 27 53.5523 27 53C27 52.4477 26.5523 52 26 52Z" fill="#A8302E"/>
</g>
<defs>
<clipPath id="clip0_707_1222">
<rect width="60" height="60" fill="white"/>
</clipPath>
</defs>
</svg>
