<svg width="60" height="60" viewBox="0 0 60 60" fill="none" xmlns="http://www.w3.org/2000/svg">
<g clip-path="url(#clip0_693_361)">
<path d="M51.9132 40.046C54.0662 38.4762 55.4995 36.1081 55.8919 33.4725C56.2842 30.8369 55.6028 28.1542 54.0001 26.0253V3.18068C54.045 1.47598 52.7047 0.0551065 51.0002 0.000732422H3.00104C1.2967 0.0551065 -0.043787 1.47598 0.00109501 3.18068V39.82C-0.043787 41.5247 1.29658 42.9456 3.00104 42.9999H18.2348L16.4348 45.9999H14.0009C12.3441 45.9999 11.0009 47.3431 11.0009 48.9998C11.0091 50.6532 12.3475 51.9916 14.0009 51.9998H32.0006V55.9997C32.0006 58.2087 33.7914 59.9996 36.0005 59.9996H56.0001C58.2092 59.9996 60 58.2087 60 55.9997V48.9998C59.9943 44.3851 56.5036 40.5201 51.9132 40.046ZM46.0004 40C41.5821 40 38.0005 36.4183 38.0005 32.0001C38.0005 27.5819 41.5821 24.0002 46.0004 24.0002C50.4186 24.0002 54.0003 27.5819 54.0003 32.0001C53.9952 36.4162 50.4165 39.9951 46.0004 40ZM3.00104 2.00062H51.0002C51.596 2.06226 52.0372 2.5828 52.0001 3.18056V24.0192C48.3742 21.2825 43.3579 21.3386 39.7939 24.1553C36.2298 26.9723 35.0165 31.8398 36.8414 36H30.0004V35C29.9925 30.6015 26.8087 26.852 22.4695 26.1312C25.5335 23.7869 26.7624 19.7506 25.5248 16.0966C24.2872 12.4427 20.8585 9.98376 17.0006 9.98376C13.1427 9.98376 9.71389 12.4425 8.47641 16.0966C7.23894 19.7507 8.46786 23.7869 11.5317 26.1312C7.19253 26.852 4.00872 30.6015 4.00075 35V36H2.0011V3.18068C1.96419 2.5828 2.40527 2.06226 3.00104 2.00062ZM15.7819 30.0002L15.2818 28.0002H18.7198L18.2198 30.0002H15.7819ZM20.0257 31.0251L20.7817 28.0002H21.0007C21.9109 28.0002 22.8123 28.1789 23.6537 28.5262C23.0655 30.9863 22.1514 33.357 20.9357 35.5751L20.0257 31.0251ZM17.0008 26.0002C13.1349 26.0002 10.001 22.8662 10.001 19.0004C10.001 15.1345 13.135 12.0005 17.0008 12.0005C20.8667 12.0005 24.0007 15.1345 24.0007 19.0004C23.9963 22.8644 20.8649 25.9959 17.0008 26.0002ZM13.2198 28.0002L13.9758 31.0251L13.0659 35.5751C11.8502 33.3569 10.9361 30.9863 10.3479 28.5262C11.1893 28.179 12.0906 28.0003 13.0008 28.0002H13.2198ZM8.55797 29.6001C9.12761 31.8202 9.95037 33.9676 11.01 36H6.00099V35C6.0024 32.9082 6.94058 30.9268 8.55797 29.6001ZM15.8209 32.0001H18.1809L18.9809 36H15.0209L15.8209 32.0001ZM25.4437 29.6001C27.0611 30.9268 27.9993 32.9082 28.0007 35V36H22.9918C24.0513 33.9676 24.8741 31.8203 25.4437 29.6001ZM2.0011 39.82V38H38.0194C38.606 38.7787 39.3025 39.4679 40.0874 40.0459C38.9746 40.1611 37.8935 40.4848 36.9004 40.9999H3.00104C2.40527 40.9384 1.96419 40.4179 2.0011 39.82ZM20.5668 42.9999H34.3116C33.5257 43.8734 32.9189 44.8927 32.5256 45.9999H18.7668L20.5668 42.9999ZM14.0009 49.9998C13.7315 50.0006 13.4737 49.8899 13.2889 49.6938C13.1023 49.5115 12.9982 49.2607 13.0008 48.9998C13.0008 48.4475 13.4486 47.9999 14.0008 47.9999H32.0594C32.0211 48.3319 32.0014 48.6657 32.0005 48.9998V49.9998H14.0009ZM58.0001 55.9997C58.0001 57.1043 57.1047 57.9997 56.0001 57.9997H36.0005C34.8959 57.9997 34.0005 57.1043 34.0005 55.9997V48.9998C34.0049 45.1358 37.1362 42.0043 41.0003 42H51.0001C54.8641 42.0044 57.9956 45.1358 57.9999 48.9998V55.9997H58.0001Z" fill="#A8302E"/>
<path d="M31.0009 20.0002H32.0009V21.9601C32.0023 22.7247 32.4298 23.4247 33.1094 23.7751C33.789 24.1254 34.6073 24.0676 35.2309 23.6251L40.3208 20.0002H47.0007C48.6575 20.0002 50.0007 18.657 50.0007 17.0002V7.00044C50.0007 5.34367 48.6575 4.00049 47.0007 4.00049H31.0009C29.344 4.00049 28.001 5.34367 28.001 7.00044V17.0002C28.001 18.6571 29.344 20.0002 31.0009 20.0002ZM30.0009 7.00044C30.0009 6.44814 30.4485 6.00049 31.0008 6.00049H47.0005C47.5528 6.00049 48.0004 6.44826 48.0004 7.00044V17.0002C48.0004 17.5525 47.5527 18.0002 47.0005 18.0002H40.0007C39.7926 18.0004 39.5899 18.0653 39.4207 18.1861L34.0008 21.9601V19.0001C34.0008 18.4478 33.553 18.0002 33.0008 18.0002H31.0008C30.4485 18.0002 30.0009 17.5524 30.0009 17.0002V7.00044Z" fill="#A8302E"/>
<path d="M33.0009 10.0004H38.0009C38.5532 10.0004 39.0008 9.55273 39.0008 9.00043C39.0008 8.44814 38.5532 8.00049 38.0009 8.00049H33.0009C32.4486 8.00049 32.001 8.44825 32.001 9.00043C32.001 9.55273 32.4487 10.0004 33.0009 10.0004Z" fill="#A8302E"/>
<path d="M33.0009 14.0003H45.0007C45.553 14.0003 46.0007 13.5525 46.0007 13.0003C46.0007 12.448 45.553 12.0004 45.0007 12.0004H33.0009C32.4486 12.0004 32.001 12.4481 32.001 13.0003C32.001 13.5526 32.4487 14.0003 33.0009 14.0003Z" fill="#A8302E"/>
</g>
<defs>
<clipPath id="clip0_693_361">
<rect width="60" height="60" fill="white"/>
</clipPath>
</defs>
</svg>
