<svg width="60" height="60" viewBox="0 0 60 60" fill="none" xmlns="http://www.w3.org/2000/svg">
<g clip-path="url(#clip0_707_1395)">
<path d="M54 4.00002H47.414L44.879 1.46402C44.4157 0.998333 43.8646 0.629159 43.2576 0.377864C42.6507 0.126569 41.9999 -0.00185599 41.343 2.02654e-05H17C15.4092 0.0016087 13.884 0.63426 12.7591 1.75913C11.6342 2.88401 11.0016 4.40921 11 6.00002V29H9C6.61305 29 4.32387 29.9482 2.63604 31.6361C0.948212 33.3239 0 35.6131 0 38C0 40.387 0.948212 42.6762 2.63604 44.364C4.32387 46.0518 6.61305 47 9 47H11V50C11.0018 51.2914 11.4196 52.5478 12.1917 53.583C12.9637 54.6182 14.0488 55.3771 15.286 55.747C15.6544 56.9761 16.4093 58.0537 17.4386 58.8199C18.468 59.586 19.7169 59.9999 21 60H54C55.5908 59.9984 57.116 59.3658 58.2409 58.2409C59.3658 57.116 59.9984 55.5908 60 54V10C59.9984 8.40921 59.3658 6.88401 58.2409 5.75913C57.116 4.63426 55.5908 4.00161 54 4.00002ZM52.585 12H46C45.4696 12 44.9609 11.7893 44.5858 11.4142C44.2107 11.0392 44 10.5305 44 10V3.41402L52.585 12ZM9 45C7.14348 45 5.36301 44.2625 4.05025 42.9498C2.7375 41.637 2 39.8565 2 38C2 36.1435 2.7375 34.363 4.05025 33.0503C5.36301 31.7375 7.14348 31 9 31H11V33H9C7.67392 33 6.40215 33.5268 5.46447 34.4645C4.52678 35.4022 4 36.6739 4 38C4 39.3261 4.52678 40.5979 5.46447 41.5356C6.40215 42.4732 7.67392 43 9 43H11V45H9ZM11 37H10C9.73478 37 9.48043 37.1054 9.29289 37.2929C9.10536 37.4805 9 37.7348 9 38C9 38.2652 9.10536 38.5196 9.29289 38.7071C9.48043 38.8947 9.73478 39 10 39H11V41H9C8.20435 41 7.44129 40.684 6.87868 40.1213C6.31607 39.5587 6 38.7957 6 38C6 37.2044 6.31607 36.4413 6.87868 35.8787C7.44129 35.3161 8.20435 35 9 35H11V37ZM13 35H24C24.2652 35 24.5196 35.1054 24.7071 35.2929C24.8946 35.4805 25 35.7348 25 36C25 36.2652 24.8946 36.5196 24.7071 36.7071C24.5196 36.8947 24.2652 37 24 37H13V35ZM13 39H24C24.7956 39 25.5587 38.684 26.1213 38.1213C26.6839 37.5587 27 36.7957 27 36C27 35.2044 26.6839 34.4413 26.1213 33.8787C25.5587 33.3161 24.7956 33 24 33H13V31H24C25.3261 31 26.5979 31.5268 27.5355 32.4645C28.4732 33.4022 29 34.6739 29 36C29 37.3261 28.4732 38.5979 27.5355 39.5356C26.5979 40.4732 25.3261 41 24 41H13V39ZM13 50V47H21C21.2652 47 21.5196 46.8947 21.7071 46.7071C21.8946 46.5196 22 46.2652 22 46C22 45.7348 21.8946 45.4805 21.7071 45.2929C21.5196 45.1054 21.2652 45 21 45H13V43H24C25.8565 43 27.637 42.2625 28.9497 40.9498C30.2625 39.637 31 37.8565 31 36C31 34.1435 30.2625 32.363 28.9497 31.0503C27.637 29.7375 25.8565 29 24 29H13V6.00002C13 4.93915 13.4214 3.92174 14.1716 3.17159C14.9217 2.42145 15.9391 2.00002 17 2.00002H41.343C41.5642 2.00172 41.7845 2.02788 42 2.07802V10C42 11.0609 42.4214 12.0783 43.1716 12.8284C43.9217 13.5786 44.9391 14 46 14H53.92C53.9712 14.2153 53.998 14.4357 54 14.657V50C54 51.0609 53.5786 52.0783 52.8284 52.8285C52.0783 53.5786 51.0609 54 50 54H17C15.9391 54 14.9217 53.5786 14.1716 52.8285C13.4214 52.0783 13 51.0609 13 50ZM58 54C58 55.0609 57.5786 56.0783 56.8284 56.8285C56.0783 57.5786 55.0609 58 54 58H21C20.2982 58.0009 19.6087 57.8165 19.0011 57.4653C18.3935 57.1141 17.8895 56.6086 17.54 56H50C51.5908 55.9984 53.116 55.3658 54.2409 54.2409C55.3658 53.116 55.9984 51.5908 56 50V14.657C56.0016 14.0002 55.873 13.3496 55.6215 12.7428C55.37 12.136 55.0007 11.5851 54.535 11.122L49.414 6.00002H54C55.0609 6.00002 56.0783 6.42145 56.8284 7.17159C57.5786 7.92174 58 8.93915 58 10V54Z" fill="#A8302E"/>
<path d="M22 5H18C17.4696 5 16.9609 5.21071 16.5858 5.58579C16.2107 5.96086 16 6.46957 16 7V11C16 11.5304 16.2107 12.0391 16.5858 12.4142C16.9609 12.7893 17.4696 13 18 13H22C22.5304 13 23.0391 12.7893 23.4142 12.4142C23.7893 12.0391 24 11.5304 24 11V7C24 6.46957 23.7893 5.96086 23.4142 5.58579C23.0391 5.21071 22.5304 5 22 5ZM18 11V7H22V11H18Z" fill="#A8302E"/>
<path d="M27 8H31C31.2652 8 31.5196 7.89464 31.7071 7.70711C31.8946 7.51957 32 7.26522 32 7C32 6.73478 31.8946 6.48043 31.7071 6.29289C31.5196 6.10536 31.2652 6 31 6H27C26.7348 6 26.4804 6.10536 26.2929 6.29289C26.1054 6.48043 26 6.73478 26 7C26 7.26522 26.1054 7.51957 26.2929 7.70711C26.4804 7.89464 26.7348 8 27 8Z" fill="#A8302E"/>
<path d="M35 8H39C39.2652 8 39.5196 7.89464 39.7071 7.70711C39.8946 7.51957 40 7.26522 40 7C40 6.73478 39.8946 6.48043 39.7071 6.29289C39.5196 6.10536 39.2652 6 39 6H35C34.7348 6 34.4804 6.10536 34.2929 6.29289C34.1054 6.48043 34 6.73478 34 7C34 7.26522 34.1054 7.51957 34.2929 7.70711C34.4804 7.89464 34.7348 8 35 8Z" fill="#A8302E"/>
<path d="M39 11C39 10.7348 38.8946 10.4804 38.7071 10.2929C38.5196 10.1054 38.2652 10 38 10H27C26.7348 10 26.4804 10.1054 26.2929 10.2929C26.1054 10.4804 26 10.7348 26 11C26 11.2652 26.1054 11.5196 26.2929 11.7071C26.4804 11.8946 26.7348 12 27 12H38C38.2652 12 38.5196 11.8946 38.7071 11.7071C38.8946 11.5196 39 11.2652 39 11Z" fill="#A8302E"/>
</g>
<defs>
<clipPath id="clip0_707_1395">
<rect width="60" height="60" fill="white"/>
</clipPath>
</defs>
</svg>
