<svg width="60" height="60" viewBox="0 0 60 60" fill="none" xmlns="http://www.w3.org/2000/svg">
<path d="M59.3627 49.3636C59.1809 49.1818 58.9082 49 58.6355 49H56.1809V17.5455C56.1809 15.7273 54.7264 14.1818 52.8173 14.1818H46.4536C44.6355 6.81819 37.9082 1.36365 29.9991 1.36365C22.09 1.36365 15.3627 6.81819 13.5445 14.2727H7.18091C5.36272 14.2727 3.81727 15.7273 3.81727 17.6364V49.0909H1.36272C1.09 49.0909 0.817269 49.1818 0.635451 49.4546C0.453633 49.6364 0.362724 50 0.453633 50.2727L2.54454 58.0909C2.63545 58.4546 2.99909 58.7273 3.45363 58.7273H56.5445C56.9991 58.7273 57.2718 58.4546 57.4536 58.0909L59.5445 50.2727C59.5445 49.9091 59.5445 49.6364 59.3627 49.3636ZM44.7264 29.5455V22.5455C46.6355 22.9091 47.9991 24.3636 47.9991 26.0909C47.9991 27.7273 46.6355 29.1818 44.7264 29.5455ZM42.9082 30.7273H40.9082V21.3636H42.9082V30.7273ZM17.09 21.3636H19.09V30.7273H17.09C17.09 21.8182 17.09 30.1818 17.09 21.3636ZM15.2718 29.5455C13.3627 29.1818 11.9991 27.7273 11.9991 26C11.9991 24.2727 13.4536 22.8182 15.2718 22.4546V29.5455ZM5.63545 17.5455C5.63545 16.7273 6.27181 16 7.18091 16H13.1809C13.09 16.7273 12.9991 17.5455 12.9991 18.2727V21.3636C11.2718 22.3636 10.1809 24 10.1809 25.9091C10.1809 28.6364 12.3627 30.8182 15.2718 31.2727V31.5455C15.2718 32.0909 15.6355 32.4546 16.1809 32.4546H19.9991C20.5445 32.4546 20.9082 32.0909 20.9082 31.5455V20.4546C20.9082 19.9091 20.5445 19.5455 19.9991 19.5455H16.1809C15.6355 19.5455 15.2718 19.9091 15.2718 20.4546V20.7273C15.09 20.7273 14.9991 20.8182 14.8173 20.8182V18.3636C14.8173 10 21.6355 3.18183 29.9991 3.18183C38.3627 3.18183 45.1809 10 45.1809 18.3636V20.8182C44.9991 20.8182 44.9082 20.7273 44.7264 20.7273V20.4546C44.7264 19.9091 44.3627 19.5455 43.8173 19.5455H39.9991C39.4536 19.5455 39.09 19.9091 39.09 20.4546V31.6364C39.09 32.1818 39.4536 32.5455 39.9991 32.5455H43.8173C44.3627 32.5455 44.7264 32.1818 44.7264 31.6364V31.3636C45.09 31.2727 45.4536 31.2727 45.8173 31.0909V36.7273C45.8173 37.9091 44.8173 38.9091 43.6355 38.9091H36.8173V38.2727C36.8173 37.2727 35.9991 36.3636 34.9082 36.3636H26.9082C25.9082 36.3636 24.9991 37.1818 24.9991 38.2727V41.4546C24.9991 42.4546 25.8173 43.3637 26.9082 43.3637H34.9082C35.9082 43.3637 36.8173 42.5455 36.8173 41.4546V40.8182H43.6355C45.8173 40.8182 47.6355 39 47.6355 36.8182V30.2727C48.9991 29.2727 49.9082 27.7273 49.9082 26.0909C49.9082 24.1818 48.7264 22.4546 47.09 21.5455V18.4546C47.09 17.6364 46.9991 16.9091 46.9082 16.1818H52.9082C53.7264 16.1818 54.4536 16.8182 54.4536 17.7273V49.0909H5.63545V17.5455ZM34.9991 41.4546L26.9082 41.5455C26.9082 41.5455 26.8173 41.5455 26.8173 41.4546V38.2727C26.8173 38.2727 26.8173 38.1818 26.9082 38.1818H34.9082C34.9082 38.1818 34.9991 38.1818 34.9991 38.2727V41.4546ZM55.9082 56.8182H4.09L2.54454 50.9091H57.4536L55.9082 56.8182Z" fill="#A8302E"/>
<path d="M29.2726 18.5454H37.818C38.3635 18.5454 38.7271 18.1818 38.7271 17.6363V8.1818C38.7271 7.63634 38.3635 7.27271 37.818 7.27271H22.0907C21.5453 7.27271 21.1816 7.63634 21.1816 8.1818V17.6363C21.1816 18.1818 21.5453 18.5454 22.0907 18.5454H23.7271V20.0909C23.7271 20.8182 24.4544 21.1818 25.0907 20.9091L29.2726 18.5454ZM22.9998 16.7273V9.09089H36.9089V16.7273H29.0907C28.9089 16.7273 28.818 16.7273 28.6362 16.8182L25.6362 18.5454V17.6363C25.6362 17.0909 25.2726 16.7273 24.7271 16.7273H22.9998Z" fill="#A8302E"/>
<path d="M25.7255 12.0909H34.3619C34.9073 12.0909 35.271 11.7273 35.271 11.1818C35.271 10.6363 34.9073 10.2727 34.3619 10.2727H25.7255C25.18 10.2727 24.8164 10.6363 24.8164 11.1818C24.8164 11.7273 25.18 12.0909 25.7255 12.0909Z" fill="#A8302E"/>
<path d="M34.272 15.0909C34.8175 15.0909 35.1811 14.7273 35.1811 14.1818C35.1811 13.6363 34.8175 13.2727 34.272 13.2727H25.6357C25.0902 13.2727 24.7266 13.6363 24.7266 14.1818C24.7266 14.7273 25.0902 15.0909 25.6357 15.0909H34.272Z" fill="#A8302E"/>
</svg>
