<svg width="60" height="60" viewBox="0 0 60 60" fill="none" xmlns="http://www.w3.org/2000/svg">
<path d="M29.9668 14.5604C25.4679 14.5604 21.8076 18.2207 21.8076 22.7196C22.2178 33.529 37.7173 33.5261 38.126 22.7195C38.126 18.2207 34.4657 14.5604 29.9668 14.5604ZM30.8457 29.0609V28.1798C30.8054 27.0161 29.1279 27.017 29.0879 28.1798V29.0609C26.2599 28.6709 24.0157 26.4266 23.6257 23.5986H24.5067C25.6705 23.5583 25.6695 21.8808 24.5067 21.8408H23.6257C24.7883 14.5241 35.1481 14.5293 36.308 21.8408H35.427C34.2632 21.8811 34.2642 23.5587 35.427 23.5986H36.308C35.9179 26.4265 33.6737 28.6709 30.8457 29.0609Z" fill="#A8302E"/>
<path d="M29.9669 19.3725C29.4816 19.3725 29.088 19.766 29.088 20.2514V21.8407H28.7328C27.5691 21.881 27.57 23.5586 28.7328 23.5985H29.9669C30.4523 23.5985 30.8458 23.205 30.8458 22.7196V20.2514C30.8458 19.766 30.4523 19.3725 29.9669 19.3725Z" fill="#A8302E"/>
<path d="M8.12598 34.5189H11.7662C12.2516 34.5189 12.6451 34.1253 12.6451 33.64V26.3598C12.6451 25.8744 12.2516 25.4809 11.7662 25.4809H8.12598C7.64059 25.4809 7.24707 25.8744 7.24707 26.3598V33.64C7.24707 34.1253 7.64059 34.5189 8.12598 34.5189ZM9.00488 27.2387H10.8873V32.7611H9.00488V27.2387Z" fill="#A8302E"/>
<path d="M15.4062 34.5189C15.8916 34.5189 16.2852 34.1253 16.2852 33.64V26.3598C16.2448 25.196 14.5673 25.1969 14.5273 26.3598V33.64C14.5273 34.1253 14.9209 34.5189 15.4062 34.5189Z" fill="#A8302E"/>
<path d="M8.12598 45.4393H11.7662C12.2516 45.4393 12.6451 45.0458 12.6451 44.5604V37.2802C12.6451 36.7948 12.2516 36.4012 11.7662 36.4012H8.12598C7.64059 36.4012 7.24707 36.7948 7.24707 37.2802V44.5604C7.24707 45.0458 7.64059 45.4393 8.12598 45.4393ZM9.00488 38.1591H10.8873V43.6815H9.00488V38.1591Z" fill="#A8302E"/>
<path d="M15.4062 45.4393C15.8916 45.4393 16.2852 45.0458 16.2852 44.5604V37.2801C16.2448 36.1164 14.5673 36.1173 14.5273 37.2801V44.5604C14.5273 45.0458 14.9209 45.4393 15.4062 45.4393Z" fill="#A8302E"/>
<path d="M8.12598 56.3596H11.7662C12.2516 56.3596 12.6451 55.966 12.6451 55.4807V48.2004C12.6451 47.715 12.2516 47.3215 11.7662 47.3215H8.12598C7.64059 47.3215 7.24707 47.715 7.24707 48.2004V55.4807C7.24707 55.966 7.64059 56.3596 8.12598 56.3596ZM9.00488 49.0794H10.8873V54.6019H9.00488V49.0794Z" fill="#A8302E"/>
<path d="M15.4062 56.3596C15.8916 56.3596 16.2852 55.966 16.2852 55.4806V48.2004C16.2448 47.0366 14.5673 47.0375 14.5273 48.2004V55.4806C14.5273 55.966 14.9209 56.3596 15.4062 56.3596Z" fill="#A8302E"/>
<path d="M52.6861 26.3598C52.6861 25.8744 52.2926 25.4809 51.8072 25.4809H48.167C47.6816 25.4809 47.2881 25.8744 47.2881 26.3598V33.64C47.2881 34.1253 47.6816 34.5189 48.167 34.5189H51.8072C52.2926 34.5189 52.6861 34.1253 52.6861 33.64V26.3598ZM50.9283 32.7611H49.046V27.2387H50.9284L50.9283 32.7611Z" fill="#A8302E"/>
<path d="M45.4062 26.3598C45.3659 25.196 43.6884 25.1969 43.6484 26.3598V33.64C43.6888 34.8037 45.3663 34.8028 45.4062 33.64V26.3598Z" fill="#A8302E"/>
<path d="M52.6861 37.2802C52.6861 36.7948 52.2926 36.4012 51.8072 36.4012H48.167C47.6816 36.4012 47.2881 36.7948 47.2881 37.2802V44.5604C47.2881 45.0458 47.6816 45.4393 48.167 45.4393H51.8072C52.2926 45.4393 52.6861 45.0458 52.6861 44.5604V37.2802ZM50.9283 43.6814H49.046V38.1589H50.9284L50.9283 43.6814Z" fill="#A8302E"/>
<path d="M45.4062 37.2801C45.3659 36.1164 43.6884 36.1173 43.6484 37.2801V44.5604C43.6888 45.7242 45.3663 45.7233 45.4062 44.5604V37.2801Z" fill="#A8302E"/>
<path d="M51.8072 47.3216H48.167C47.6816 47.3216 47.2881 47.7151 47.2881 48.2005V55.4808C47.2881 55.9662 47.6816 56.3597 48.167 56.3597H51.8072C52.2926 56.3597 52.6861 55.9662 52.6861 55.4808V48.2005C52.6861 47.715 52.2926 47.3216 51.8072 47.3216ZM50.9283 54.6017H49.046V49.0793H50.9284L50.9283 54.6017Z" fill="#A8302E"/>
<path d="M44.5273 47.3216C44.042 47.3216 43.6484 47.7151 43.6484 48.2005V55.4808C43.6888 56.6446 45.3663 56.6436 45.4062 55.4808V48.2005C45.4062 47.715 45.0127 47.3216 44.5273 47.3216Z" fill="#A8302E"/>
<path d="M58.0537 22.3265L56.2336 18.6865C56.0847 18.3887 55.7805 18.2006 55.4475 18.2006H41.7659V11.7992C41.7659 11.3138 41.3724 10.9203 40.887 10.9203H38.1254V6.36606L40.0081 5.73852V6.33911C40.0081 7.82739 41.2189 9.03806 42.707 9.03806C43.1924 9.03806 43.5859 8.64454 43.5859 8.15915C43.5859 7.67376 43.1924 7.28024 42.707 7.28024C42.1881 7.28024 41.7659 6.85802 41.7659 6.33911V4.51895C41.7659 4.13317 41.5066 3.79028 41.1469 3.67919L30.2445 0.0450879C30.0641 -0.0150293 29.869 -0.0150293 29.6887 0.0450879L18.7683 3.68528C17.779 4.07212 17.779 4.95103 18.7683 5.35298L21.8079 6.36618V10.9204H19.0463C18.5609 10.9204 18.1674 11.314 18.1674 11.7993V18.2004H13.681C13.1956 18.2004 12.8021 18.5939 12.8021 19.0793C12.8021 19.5647 13.1956 19.9582 13.681 19.9582H18.1669V21.8408L4.08719 21.8411L5.02844 19.9579H9.85118C10.3366 19.9579 10.7301 19.5644 10.7301 19.079C10.7301 18.5936 10.3366 18.2001 9.85118 18.2001H4.48516C4.15223 18.2001 3.84778 18.3882 3.69895 18.686L1.87903 22.327C1.66832 23.0431 1.93036 23.4671 2.66524 23.599H3.60684V59.1207C3.60684 59.6061 4.00036 59.9996 4.48575 59.9996L55.448 60C55.9334 60 56.3269 59.6065 56.3269 59.1211V42.8354C56.3269 42.35 55.9334 41.9565 55.448 41.9565C54.9626 41.9565 54.5691 42.35 54.5691 42.8354V58.2422H41.7664V23.5991H54.5691V39.0047C54.5691 39.49 54.9626 39.8836 55.448 39.8836C55.9334 39.8836 56.3269 39.49 56.3269 39.0047V23.5985H57.2676C58.0332 23.5985 58.414 23.0858 58.0537 22.3265ZM18.1674 58.2419H5.36465V23.5991H18.1673V58.2419H18.1674ZM29.9666 1.80536L38.1077 4.51907L29.9666 7.23267L21.8256 4.51907L29.9666 1.80536ZM36.3674 6.952V10.9203H23.5657V6.952L29.6887 8.99294C29.8739 9.05306 30.0592 9.05306 30.2445 8.99294L36.3674 6.952ZM34.5475 58.2419H30.8456V45.4393H34.5475V58.2419ZM40.0081 58.2419H36.3053V44.5604C36.3053 44.075 35.9118 43.6815 35.4264 43.6815H29.9757C29.9696 43.6814 29.9636 43.6814 29.9575 43.6815H24.5068C24.0214 43.6815 23.6279 44.075 23.6279 44.5604V49.5913C23.6682 50.755 25.3457 50.7541 25.3857 49.5913V45.4393H29.0876V58.2419H25.3857V53.4222C25.3454 52.2584 23.6678 52.2594 23.6279 53.4222V58.2419H19.9251V12.6781H40.008V58.2419H40.0081ZM41.7659 21.8407V19.9584H54.9043L55.8454 21.8407H41.7659Z" fill="#A8302E"/>
<path d="M26.3267 32.761H22.6865C22.2011 32.761 21.8076 33.1546 21.8076 33.64V40.9202C21.8076 41.4056 22.2011 41.7991 22.6865 41.7991H26.3267C26.8121 41.7991 27.2056 41.4056 27.2056 40.9202V33.64C27.2056 33.1546 26.8121 32.761 26.3267 32.761ZM25.4478 40.0413H23.5654V34.5189H25.4478V40.0413Z" fill="#A8302E"/>
<path d="M37.2466 32.761H33.6064C33.1211 32.761 32.7275 33.1546 32.7275 33.64V40.9202C32.7275 41.4056 33.1211 41.7991 33.6064 41.7991H37.2466C37.732 41.7991 38.1255 41.4056 38.1255 40.9202V33.64C38.1255 33.1546 37.732 32.761 37.2466 32.761ZM36.3677 40.0413H34.4854V34.5189H36.3677V40.0413Z" fill="#A8302E"/>
<path d="M29.9668 32.761C29.4814 32.761 29.0879 33.1546 29.0879 33.64V40.9202C29.1282 42.084 30.8057 42.0831 30.8457 40.9202V33.64C30.8457 33.1546 30.4522 32.761 29.9668 32.761Z" fill="#A8302E"/>
</svg>
