<svg width="60" height="60" viewBox="0 0 60 60" fill="none" xmlns="http://www.w3.org/2000/svg">
<path d="M51.9132 40.046C54.0662 38.4762 55.4995 36.1081 55.8919 33.4725C56.2842 30.8369 55.6028 28.1542 54.0001 26.0253V3.18068C54.045 1.47598 52.7047 0.0551065 51.0002 0.000732422H3.00104C1.2967 0.0551065 -0.043787 1.47598 0.00109501 3.18068V39.82C-0.043787 41.5247 1.29658 42.9456 3.00104 42.9999H18.2348L16.4348 45.9999H14.0009C12.3441 45.9999 11.0009 47.3431 11.0009 48.9998C11.0091 50.6532 12.3475 51.9916 14.0009 51.9998H32.0006V55.9997C32.0006 58.2087 33.7914 59.9996 36.0005 59.9996H56.0001C58.2092 59.9996 60 58.2087 60 55.9997V48.9998C59.9943 44.3851 56.5036 40.5201 51.9132 40.046ZM46.0004 40C41.5821 40 38.0005 36.4183 38.0005 32.0001C38.0005 27.5819 41.5821 24.0002 46.0004 24.0002C50.4186 24.0002 54.0003 27.5819 54.0003 32.0001C53.9952 36.4162 50.4165 39.9951 46.0004 40ZM3.00104 2.00062H51.0002C51.596 2.06226 52.0372 2.5828 52.0001 3.18056V24.0192C48.3742 21.2825 43.3579 21.3386 39.7939 24.1553C36.2298 26.9723 35.0165 31.8398 36.8414 36H30.0004V35C29.9925 30.6015 26.8087 26.852 22.4695 26.1312C25.5335 23.7869 26.7624 19.7506 25.5248 16.0966C24.2872 12.4427 20.8585 9.98376 17.0006 9.98376C13.1427 9.98376 9.71389 12.4425 8.47641 16.0966C7.23894 19.7507 8.46786 23.7869 11.5317 26.1312C7.19253 26.852 4.00872 30.6015 4.00075 35V36H2.0011V3.18068C1.96419 2.5828 2.40527 2.06226 3.00104 2.00062ZM15.7819 30.0002L15.2818 28.0002H18.7198L18.2198 30.0002H15.7819ZM20.0257 31.0251L20.7817 28.0002H21.0007C21.9109 28.0002 22.8123 28.1789 23.6537 28.5262C23.0655 30.9863 22.1514 33.357 20.9357 35.5751L20.0257 31.0251ZM17.0008 26.0002C13.1349 26.0002 10.001 22.8662 10.001 19.0004C10.001 15.1345 13.135 12.0005 17.0008 12.0005C20.8667 12.0005 24.0007 15.1345 24.0007 19.0004C23.9963 22.8644 20.8649 25.9959 17.0008 26.0002ZM13.2198 28.0002L13.9758 31.0251L13.0659 35.5751C11.8502 33.3569 10.9361 30.9863 10.3479 28.5262C11.1893 28.179 12.0906 28.0003 13.0008 28.0002H13.2198ZM8.55797 29.6001C9.12761 31.8202 9.95037 33.9676 11.01 36H6.00099V35C6.0024 32.9082 6.94058 30.9268 8.55797 29.6001ZM15.8209 32.0001H18.1809L18.9809 36H15.0209L15.8209 32.0001ZM25.4437 29.6001C27.0611 30.9268 27.9993 32.9082 28.0007 35V36H22.9918C24.0513 33.9676 24.8741 31.8203 25.4437 29.6001ZM2.0011 39.82V38H38.0194C38.606 38.7787 39.3025 39.4679 40.0874 40.0459C38.9746 40.1611 37.8935 40.4848 36.9004 40.9999H3.00104C2.40527 40.9384 1.96419 40.4179 2.0011 39.82ZM20.5668 42.9999H34.3116C33.5257 43.8734 32.9189 44.8927 32.5256 45.9999H18.7668L20.5668 42.9999ZM14.0009 49.9998C13.7315 50.0006 13.4737 49.8899 13.2889 49.6938C13.1023 49.5115 12.9982 49.2607 13.0008 48.9998C13.0008 48.4475 13.4486 47.9999 14.0008 47.9999H32.0594C32.0211 48.3319 32.0014 48.6657 32.0005 48.9998V49.9998H14.0009ZM58.0001 55.9997C58.0001 57.1043 57.1047 57.9997 56.0001 57.9997H36.0005C34.8959 57.9997 34.0005 57.1043 34.0005 55.9997V48.9998C34.0049 45.1358 37.1362 42.0043 41.0003 42H51.0001C54.8641 42.0044 57.9956 45.1358 57.9999 48.9998V55.9997H58.0001Z" fill="#A8302E"/>
<path d="M30.9999 20.0002H31.9999V21.9601C32.0013 22.7247 32.4288 23.4247 33.1085 23.7751C33.788 24.1254 34.6063 24.0676 35.2299 23.6251L40.3198 20.0002H46.9997C48.6565 20.0002 49.9997 18.657 49.9997 17.0002V7.00044C49.9997 5.34367 48.6565 4.00049 46.9997 4.00049H30.9999C29.3431 4.00049 28 5.34367 28 7.00044V17.0002C28 18.6571 29.3431 20.0002 30.9999 20.0002ZM29.9999 7.00044C29.9999 6.44814 30.4475 6.00049 30.9998 6.00049H46.9995C47.5518 6.00049 47.9995 6.44826 47.9995 7.00044V17.0002C47.9995 17.5525 47.5517 18.0002 46.9995 18.0002H39.9997C39.7917 18.0004 39.5889 18.0653 39.4197 18.1861L33.9998 21.9601V19.0001C33.9998 18.4478 33.552 18.0002 32.9998 18.0002H30.9998C30.4475 18.0002 29.9999 17.5524 29.9999 17.0002V7.00044Z" fill="#A8302E"/>
<path d="M32.9999 10.0004H37.9999C38.5522 10.0004 38.9998 9.55273 38.9998 9.00043C38.9998 8.44814 38.5522 8.00049 37.9999 8.00049H32.9999C32.4477 8.00049 32 8.44825 32 9.00043C32 9.55273 32.4478 10.0004 32.9999 10.0004Z" fill="#A8302E"/>
<path d="M32.9999 14.0003H44.9997C45.552 14.0003 45.9997 13.5525 45.9997 13.0003C45.9997 12.448 45.552 12.0004 44.9997 12.0004H32.9999C32.4477 12.0004 32 12.4481 32 13.0003C32 13.5526 32.4478 14.0003 32.9999 14.0003Z" fill="#A8302E"/>
</svg>
