<svg width="60" height="60" viewBox="0 0 60 60" fill="none" xmlns="http://www.w3.org/2000/svg">
<path fill-rule="evenodd" clip-rule="evenodd" d="M24.5972 54.5294V55.0898C24.5981 55.3557 24.704 55.6105 24.8921 55.7985C25.0801 55.9865 25.3348 56.0925 25.6007 56.0933H34.7011C34.967 56.0925 35.2218 55.9865 35.4098 55.7985C35.5978 55.6105 35.7039 55.3557 35.7047 55.0898V54.5296L24.5972 54.5294ZM36.7569 37.1657H39.048V24.4302H36.7569V37.1657ZM29.8032 37.1657H32.0942V28.127H29.8032V37.1657ZM22.9213 37.1657H25.2123V32.9602H22.9214V37.1657H22.9213ZM20.3851 38.6627C20.2861 38.664 20.1877 38.6455 20.0958 38.6085C20.0039 38.5714 19.9203 38.5165 19.8498 38.4468C19.7793 38.3772 19.7233 38.2943 19.6851 38.2028C19.6469 38.1114 19.6272 38.0133 19.6272 37.9142C19.6272 37.8151 19.6469 37.717 19.6851 37.6256C19.7233 37.5341 19.7793 37.4512 19.8498 37.3816C19.9203 37.3119 20.0039 37.257 20.0958 37.2199C20.1877 37.1829 20.2861 37.1644 20.3851 37.1657H21.4241V32.2117C21.4241 32.0131 21.503 31.8227 21.6434 31.6823C21.7838 31.542 21.9742 31.4631 22.1727 31.4631H25.9608C26.1594 31.4631 26.3498 31.542 26.4901 31.6823C26.6305 31.8227 26.7094 32.0131 26.7094 32.2117V37.1657H28.306V27.3784C28.306 27.1799 28.3848 26.9894 28.5252 26.8491C28.6656 26.7087 28.856 26.6298 29.0546 26.6298H32.8426C33.0412 26.6298 33.2316 26.7087 33.372 26.8491C33.5124 26.9894 33.5912 27.1799 33.5912 27.3784V37.1657H35.2598V23.6816C35.2598 23.5833 35.2791 23.4859 35.3167 23.3951C35.3544 23.3043 35.4095 23.2218 35.479 23.1523C35.5485 23.0828 35.6311 23.0276 35.7219 22.99C35.8127 22.9524 35.91 22.933 36.0084 22.933H39.7964C39.995 22.933 40.1853 23.0119 40.3257 23.1523C40.4661 23.2927 40.5449 23.4831 40.5449 23.6816V37.1728C40.7325 37.1991 40.9032 37.2956 41.0225 37.4428C41.1418 37.59 41.2008 37.7769 41.1877 37.9659C41.1746 38.1549 41.0903 38.3319 40.9518 38.4613C40.8134 38.5906 40.631 38.6626 40.4416 38.6627H20.3851ZM16.7119 6.31558L14.2735 7.3234L14.6464 8.22574C14.7157 8.38594 14.7267 8.56536 14.6775 8.73283C14.6282 8.9003 14.5218 9.04521 14.3768 9.14238C13.3558 9.82916 12.4775 10.7073 11.7906 11.7282C11.6941 11.8711 11.5512 11.9763 11.386 12.0258C11.2209 12.0754 11.0437 12.0664 10.8844 12.0003L9.97105 11.6208L8.96019 14.0555L9.84472 14.4227C10.0117 14.484 10.1513 14.6028 10.2386 14.7577C10.3259 14.9126 10.3552 15.0936 10.3211 15.2681C10.0811 16.4765 10.0792 17.7202 10.3156 18.9293C10.3473 19.0982 10.32 19.2729 10.2382 19.4241C10.1564 19.5753 10.0251 19.6937 9.86628 19.7596L8.95374 20.1366L9.96155 22.575L10.8639 22.2022C11.0241 22.1329 11.2035 22.1218 11.371 22.1711C11.5384 22.2203 11.6833 22.3267 11.7804 22.4718C12.4673 23.4928 13.3455 24.371 14.3664 25.0581C14.5093 25.1546 14.6144 25.2975 14.664 25.4626C14.7136 25.6277 14.7046 25.8049 14.6385 25.9642L14.2593 26.8775L16.6941 27.8884L17.0612 27.004C17.1225 26.837 17.2413 26.6974 17.3962 26.6101C17.5511 26.5228 17.7321 26.4935 17.9066 26.5275C19.115 26.7675 20.3587 26.7694 21.5678 26.533C21.7367 26.5012 21.9115 26.5285 22.0627 26.6103C22.2139 26.6921 22.3323 26.8235 22.3981 26.9823L22.7752 27.8947L25.2136 26.8869L24.8409 25.9846C24.7715 25.8244 24.7605 25.645 24.8097 25.4775C24.859 25.3101 24.9654 25.1652 25.1104 25.068C26.1315 24.3813 27.0098 23.5032 27.6967 22.4822C27.7932 22.3393 27.9361 22.2341 28.1012 22.1845C28.2663 22.1349 28.4435 22.1439 28.6028 22.21L29.5162 22.5892L30.527 20.1545L29.6426 19.7873C29.4756 19.7261 29.336 19.6073 29.2487 19.4523C29.1613 19.2974 29.1321 19.1164 29.1661 18.9418C29.4061 17.7334 29.408 16.4898 29.1716 15.2807C29.1399 15.1117 29.1672 14.937 29.249 14.7858C29.3308 14.6347 29.4621 14.5162 29.6209 14.4504L30.5335 14.0733L29.5257 11.635L28.6233 12.0077C28.4631 12.0771 28.2837 12.0881 28.1163 12.0388C27.9488 11.9896 27.8039 11.8832 27.7068 11.7382C27.0199 10.7173 26.1417 9.83913 25.1207 9.15234C24.9778 9.05586 24.8727 8.91295 24.8231 8.74782C24.7735 8.58269 24.7825 8.40549 24.8486 8.24625L25.2278 7.33289L22.7925 6.32203L22.4259 7.20703C22.3646 7.37398 22.2458 7.51365 22.0909 7.60097C21.936 7.68829 21.755 7.71755 21.5805 7.68351C20.3721 7.44349 19.1284 7.44162 17.9193 7.67801C17.7504 7.70975 17.5756 7.68242 17.4245 7.60061C17.2733 7.51881 17.1548 7.38749 17.089 7.22871L16.7119 6.31617V6.31558ZM22.2183 11.9071C23.2584 12.4029 24.1259 13.199 24.709 14.1928C25.292 15.1866 25.5637 16.3324 25.489 17.4821L20.6222 16.5171L21.5869 11.6521C21.8022 11.7247 22.013 11.8098 22.2183 11.9071ZM25.1972 18.949L19.6 17.8391C19.4053 17.8011 19.2337 17.6873 19.1229 17.5228C19.0122 17.3583 18.9713 17.1565 19.0093 16.9618L20.1207 11.3589C19.26 11.3016 18.3975 11.4393 17.5975 11.7618C16.0682 12.5379 15.1109 13.2486 14.4263 14.8976C14.1339 15.5963 13.9823 16.3458 13.9801 17.1032C13.9779 17.8606 14.1252 18.6109 14.4135 19.3113C14.7018 20.0117 15.1255 20.6483 15.6602 21.1847C16.195 21.721 16.8303 22.1466 17.5298 22.437C18.2293 22.7274 18.9793 22.8769 19.7367 22.877C20.494 22.8771 21.244 22.7277 21.9436 22.4375C22.6431 22.1472 23.2786 21.7218 23.8134 21.1856C24.3483 20.6493 24.7721 20.0128 25.0606 19.3125C25.1103 19.1929 25.1559 19.0718 25.1973 18.9492L25.1972 18.949ZM26.8578 18.5166C27.9476 13.0446 22.453 8.14242 16.9779 10.4026C15.8757 10.8576 14.9027 11.5775 14.1452 12.4984C13.3877 13.4193 12.8689 14.5128 12.635 15.682C12.401 16.8513 12.4591 18.0602 12.8039 19.2017C13.1488 20.3432 13.7699 21.382 14.6122 22.226C15.4545 23.0701 16.4919 23.6935 17.6327 24.0408C18.7734 24.3881 19.9822 24.4488 21.1519 24.2173C22.3217 23.9859 23.4163 23.4695 24.3388 22.714C25.2614 21.9584 25.9833 20.987 26.4407 19.8858C26.6239 19.444 26.7636 18.9854 26.8578 18.5166ZM29.251 3.1582C29.251 2.95966 29.3298 2.76925 29.4702 2.62887C29.6106 2.48848 29.801 2.40961 29.9996 2.40961C30.1981 2.40961 30.3885 2.48848 30.5289 2.62887C30.6693 2.76925 30.7482 2.95966 30.7482 3.1582V7.19402C30.7482 7.39256 30.6693 7.58297 30.5289 7.72336C30.3885 7.86375 30.1981 7.94261 29.9996 7.94261C29.801 7.94261 29.6106 7.86375 29.4702 7.72336C29.3298 7.58297 29.251 7.39256 29.251 7.19402V3.1582ZM3.22573 30.6806C3.12665 30.6819 3.0283 30.6634 2.9364 30.6264C2.84449 30.5893 2.76086 30.5344 2.69035 30.4647C2.61985 30.3951 2.56386 30.3122 2.52566 30.2207C2.48745 30.1293 2.46777 30.0312 2.46777 29.9321C2.46777 29.833 2.48745 29.7349 2.52566 29.6435C2.56386 29.552 2.61985 29.4691 2.69035 29.3995C2.76086 29.3298 2.84449 29.2749 2.9364 29.2378C3.0283 29.2008 3.12665 29.1823 3.22573 29.1836H7.26144C7.36052 29.1823 7.45887 29.2008 7.55078 29.2378C7.64268 29.2749 7.72631 29.3298 7.79682 29.3995C7.86732 29.4691 7.92331 29.552 7.96151 29.6435C7.99972 29.7349 8.0194 29.833 8.0194 29.9321C8.0194 30.0312 7.99972 30.1293 7.96151 30.2207C7.92331 30.3122 7.86732 30.3951 7.79682 30.4647C7.72631 30.5344 7.64268 30.5893 7.55078 30.6264C7.45887 30.6634 7.36052 30.6819 7.26144 30.6806H3.22573ZM7.18409 43.9652C7.0127 44.0637 6.8092 44.0901 6.61837 44.0386C6.42753 43.987 6.26499 43.8618 6.1665 43.6904C6.068 43.519 6.04163 43.3155 6.09318 43.1246C6.14472 42.9338 6.26997 42.7713 6.44136 42.6728L9.93706 40.6549C10.0219 40.6061 10.1156 40.5746 10.2126 40.562C10.3097 40.5494 10.4083 40.5561 10.5028 40.5816C10.5973 40.6071 10.6858 40.651 10.7634 40.7107C10.8409 40.7705 10.9059 40.8449 10.9547 40.9298C11.0034 41.0146 11.035 41.1083 11.0476 41.2053C11.0602 41.3024 11.0535 41.401 11.028 41.4955C11.0025 41.59 10.9586 41.6785 10.8988 41.7561C10.8391 41.8336 10.7647 41.8986 10.6798 41.9474L7.18409 43.9652ZM53.5578 42.6728C53.6426 42.7215 53.7171 42.7865 53.7768 42.8641C53.8365 42.9416 53.8804 43.0301 53.906 43.1246C53.9315 43.2191 53.9381 43.3177 53.9256 43.4148C53.913 43.5119 53.8814 43.6055 53.8326 43.6904C53.7839 43.7752 53.7189 43.8497 53.6413 43.9094C53.5638 43.9691 53.4753 44.013 53.3808 44.0386C53.2863 44.0641 53.1877 44.0707 53.0906 44.0582C52.9935 44.0456 52.8999 44.014 52.815 43.9652L49.3199 41.9474C49.1485 41.8489 49.0233 41.6863 48.9717 41.4955C48.9202 41.3047 48.9466 41.1012 49.0451 40.9298C49.1435 40.7584 49.3061 40.6331 49.4969 40.5816C49.6878 40.53 49.8913 40.5564 50.0626 40.6549L53.5578 42.6728ZM56.7734 29.1836C56.8725 29.1823 56.9708 29.2008 57.0627 29.2378C57.1546 29.2749 57.2383 29.3298 57.3088 29.3995C57.3793 29.4691 57.4353 29.552 57.4735 29.6435C57.5117 29.7349 57.5314 29.833 57.5314 29.9321C57.5314 30.0312 57.5117 30.1293 57.4735 30.2207C57.4353 30.3122 57.3793 30.3951 57.3088 30.4647C57.2383 30.5344 57.1546 30.5893 57.0627 30.6264C56.9708 30.6634 56.8725 30.6819 56.7734 30.6806H52.7377C52.6386 30.6819 52.5403 30.6634 52.4484 30.6264C52.3564 30.5893 52.2728 30.5344 52.2023 30.4647C52.1318 30.3951 52.0758 30.3122 52.0376 30.2207C51.9994 30.1293 51.9797 30.0312 51.9797 29.9321C51.9797 29.833 51.9994 29.7349 52.0376 29.6435C52.0758 29.552 52.1318 29.4691 52.2023 29.3995C52.2728 29.3298 52.3564 29.2749 52.4484 29.2378C52.5403 29.2008 52.6386 29.1823 52.7377 29.1836H56.7734ZM52.8125 15.8989C52.8974 15.8487 52.9914 15.8157 53.0891 15.802C53.1868 15.7883 53.2863 15.794 53.3818 15.819C53.4773 15.8439 53.5669 15.8876 53.6454 15.9473C53.7239 16.0071 53.7898 16.0819 53.8392 16.1672C53.8887 16.2526 53.9208 16.347 53.9335 16.4448C53.9463 16.5427 53.9396 16.6421 53.9137 16.7373C53.8878 16.8326 53.8434 16.9217 53.7828 16.9997C53.7223 17.0776 53.6469 17.1428 53.5611 17.1914L50.0656 19.2093C49.8942 19.3085 49.6904 19.3357 49.499 19.2847C49.3077 19.2337 49.1444 19.1088 49.0451 18.9374C48.9458 18.766 48.9187 18.5622 48.9697 18.3708C49.0207 18.1795 49.1456 18.0162 49.317 17.9169L52.8121 15.8989H52.8125ZM42.7407 6.3716C42.7893 6.28573 42.8545 6.21036 42.9324 6.14982C43.0103 6.08929 43.0995 6.04481 43.1947 6.01894C43.29 5.99307 43.3894 5.98633 43.4872 5.99911C43.5851 6.01189 43.6794 6.04394 43.7648 6.0934C43.8502 6.14286 43.9249 6.20875 43.9847 6.28727C44.0445 6.36579 44.0881 6.45537 44.1131 6.55085C44.138 6.64633 44.1438 6.7458 44.1301 6.84352C44.1164 6.94125 44.0834 7.03528 44.0331 7.12019L42.0148 10.6146C41.9155 10.786 41.7523 10.911 41.5609 10.962C41.3695 11.013 41.1657 10.9859 40.9943 10.8867C40.8229 10.7874 40.6979 10.6241 40.6469 10.4327C40.5959 10.2414 40.623 10.0375 40.7222 9.86613L42.7402 6.37101L42.7407 6.3716ZM13.9734 28.3771L16.8107 29.5547C16.9013 29.5923 16.9985 29.6117 17.0966 29.6118C17.1947 29.6119 17.2919 29.5927 17.3826 29.5552C17.4733 29.5178 17.5557 29.4628 17.6251 29.3935C17.6946 29.3242 17.7497 29.2418 17.7873 29.1512L18.2255 28.0965C19.2272 28.2341 20.2429 28.2351 21.2448 28.0997L21.6802 29.1531C21.7554 29.3361 21.9003 29.4817 22.0829 29.558C22.2655 29.6342 22.4709 29.6348 22.6539 29.5596L26.4714 27.982C26.6544 27.9068 26.8 27.7619 26.8763 27.5793C26.9525 27.3966 26.953 27.1912 26.8778 27.0082L26.441 25.9514C26.8431 25.6475 27.2238 25.3163 27.5803 24.9601C27.9384 24.6027 28.2717 24.2213 28.5778 23.8185L29.6325 24.2565C29.8156 24.3325 30.0213 24.3327 30.2044 24.257C30.3876 24.1813 30.5332 24.0359 30.6092 23.8529L32.193 20.038C32.2306 19.9474 32.25 19.8502 32.2501 19.7521C32.2502 19.654 32.231 19.5568 32.1935 19.4661C32.156 19.3754 32.1011 19.293 32.0317 19.2236C31.9624 19.1541 31.8801 19.099 31.7895 19.0614L30.7348 18.6233C30.8035 18.1223 30.8382 17.6173 30.8386 17.1116C30.8394 16.6074 30.8057 16.1038 30.7378 15.6042L31.7914 15.1689C31.9744 15.0936 32.12 14.9488 32.1962 14.7662C32.2724 14.5836 32.273 14.3782 32.1978 14.1952L31.4559 12.4C34.6988 12.6583 37.79 13.8825 40.3305 15.9147C42.8709 17.9469 44.7441 20.6938 45.7082 23.8009C46.6723 26.908 46.6832 30.2328 45.7394 33.3462C44.7956 36.4595 42.9404 39.2186 40.4133 41.2673C39.5253 41.968 38.8103 42.8635 38.3237 43.8847C37.8371 44.9058 37.5919 46.0252 37.607 47.1562V47.9831C37.6055 48.5617 37.3749 49.1162 36.9658 49.5253C36.5567 49.9345 36.0022 50.165 35.4236 50.1666H24.8932C24.3147 50.165 23.7603 49.9343 23.3513 49.5251C22.9422 49.1159 22.7119 48.5615 22.7105 47.9829V47.1562C22.7257 46.0252 22.4806 44.9057 21.994 43.8846C21.5074 42.8634 20.7925 41.9678 19.9044 41.2671C17.7606 39.5258 16.1877 37.4339 15.2028 35.1015C14.3184 32.9734 13.8994 30.6807 13.9739 28.3773L13.9734 28.3771ZM37.1694 51.2218C36.6333 51.5123 36.0331 51.6641 35.4234 51.6634H24.8932C24.2781 51.6641 23.6728 51.5095 23.1333 51.214V53.0324H37.1694V51.2218ZM30.8233 10.8694C34.4372 11.0015 37.9247 12.2335 40.8197 14.4008C43.7147 16.568 45.8793 19.5672 47.0242 22.9975C48.169 26.4278 48.2397 30.1258 47.2267 33.5974C46.2136 37.0689 44.1651 40.1486 41.355 42.4248C40.6407 42.9866 40.0659 43.706 39.6756 44.5267C39.2853 45.3475 39.09 46.2473 39.105 47.156V47.9829C39.1057 48.5896 38.9552 49.187 38.6673 49.7211V53.3449C38.6677 53.6447 38.5561 53.9338 38.3546 54.1557C38.2495 54.2729 38.121 54.3667 37.9774 54.4311C37.8338 54.4955 37.6783 54.529 37.5209 54.5294H37.2021V55.0898C37.2011 55.7527 36.9374 56.3882 36.4686 56.8569C35.9999 57.3257 35.3644 57.5894 34.7015 57.5904H25.6002C24.9373 57.5894 24.3018 57.3257 23.8331 56.8569C23.3643 56.3882 23.1006 55.7527 23.0996 55.0898V54.5296H22.7826C22.6252 54.5291 22.4697 54.4956 22.3261 54.4312C22.1824 54.3669 22.0539 54.273 21.9489 54.1559C21.7474 53.9339 21.6359 53.6448 21.6361 53.345V49.6945C21.3574 49.1671 21.2121 48.5794 21.2127 47.9829V47.1562C21.2277 46.2476 21.0325 45.3477 20.6422 44.527C20.2518 43.7062 19.6771 42.9869 18.9627 42.425C16.6261 40.5273 14.9083 38.2383 13.8277 35.6803C12.7319 33.0857 12.2949 30.2244 12.5364 27.2228C12.5364 27.2228 12.5846 27.0128 12.5921 26.9946L13.0301 25.9399C12.6273 25.6337 12.2459 25.3005 11.8884 24.9425C11.5325 24.5858 11.2016 24.205 10.898 23.8028L9.84109 24.2395C9.65807 24.3147 9.45267 24.3142 9.27007 24.238C9.08747 24.1618 8.94261 24.0161 8.86737 23.8331L7.28921 20.0156C7.21399 19.8326 7.21456 19.6272 7.29077 19.4446C7.36698 19.262 7.51261 19.1172 7.69562 19.0419L8.74913 18.6066C8.61386 17.6046 8.61492 16.589 8.7523 15.5873L7.69761 15.1492C7.60699 15.1115 7.52467 15.0564 7.45535 14.987C7.38603 14.9175 7.33106 14.8351 7.2936 14.7444C7.25613 14.6537 7.23689 14.5566 7.23699 14.4584C7.23708 14.3603 7.2565 14.2632 7.29413 14.1725L8.87734 10.3576C8.95334 10.1746 9.09893 10.0293 9.28208 9.95358C9.46523 9.87789 9.67094 9.87805 9.85398 9.95402L10.9087 10.3921C11.2148 9.98937 11.5481 9.60799 11.906 9.25055C12.2626 8.89434 12.6433 8.56313 13.0455 8.25925L12.6086 7.20222C12.5334 7.01921 12.5339 6.81381 12.6101 6.63121C12.6864 6.4486 12.832 6.30375 13.015 6.22851L16.8325 4.65093C16.9231 4.61368 17.0202 4.59463 17.1182 4.59489C17.2161 4.59515 17.3131 4.61471 17.4035 4.65245C17.4939 4.69019 17.576 4.74537 17.6451 4.81484C17.7142 4.88431 17.769 4.96672 17.8062 5.05734L18.2416 6.11097C18.7411 6.04308 19.2448 6.0094 19.7489 6.01019C20.2546 6.01059 20.7597 6.04528 21.2607 6.11402L21.6988 5.05933C21.7365 4.96871 21.7916 4.88639 21.861 4.81707C21.9305 4.74775 22.0129 4.69279 22.1036 4.65532C22.1943 4.61785 22.2914 4.59862 22.3896 4.59871C22.4877 4.5988 22.5848 4.61822 22.6755 4.65586L26.491 6.23918C26.674 6.31521 26.8193 6.4608 26.8949 6.64395C26.9706 6.8271 26.9704 7.0328 26.8944 7.21582L26.4565 8.2705C26.8592 8.57661 27.2406 8.9098 27.598 9.26777C27.9542 9.62438 28.2854 10.0051 28.5893 10.4072L29.6462 9.97031C29.8293 9.89513 30.0347 9.89573 30.2173 9.97196C30.3999 10.0482 30.5447 10.1938 30.62 10.3768L30.8233 10.8694Z" fill="#A8302E"/>
</svg>
