<svg width="80" height="80" viewBox="0 0 80 80" fill="none" xmlns="http://www.w3.org/2000/svg">
<path d="M9.15414 34.53C9.15414 33.9259 9.64383 33.4362 10.2479 33.4362H46.6782C47.2823 33.4362 47.772 33.9259 47.772 34.53C47.772 35.1341 47.2823 35.6237 46.6782 35.6237H10.2479C9.64383 35.6237 9.15414 35.1341 9.15414 34.53ZM10.2479 42.0392H46.6782C47.2823 42.0392 47.772 41.5495 47.772 40.9455C47.772 40.3414 47.2823 39.8517 46.6782 39.8517H10.2479C9.64383 39.8517 9.15414 40.3414 9.15414 40.9455C9.15414 41.5495 9.64383 42.0392 10.2479 42.0392ZM32.573 65.5136H10.2479C9.64383 65.5136 9.15414 66.0033 9.15414 66.6073C9.15414 67.2114 9.64383 67.7011 10.2479 67.7011H32.573C33.1771 67.7011 33.6668 67.2114 33.6668 66.6073C33.6668 66.0033 33.1771 65.5136 32.573 65.5136ZM10.2479 61.2856H26.5084C27.1124 61.2856 27.6021 60.7959 27.6021 60.1919C27.6021 59.5878 27.1124 59.0981 26.5084 59.0981H10.2479C9.64383 59.0981 9.15414 59.5878 9.15414 60.1919C9.15414 60.7959 9.64383 61.2856 10.2479 61.2856ZM10.2479 54.87H26.5084C27.1124 54.87 27.6021 54.3803 27.6021 53.7762C27.6021 53.1722 27.1124 52.6825 26.5084 52.6825H10.2479C9.64383 52.6825 9.15414 53.1722 9.15414 53.7762C9.15414 54.3803 9.64383 54.87 10.2479 54.87ZM10.2479 48.4545H46.6782C47.2823 48.4545 47.772 47.9648 47.772 47.3608C47.772 46.7567 47.2823 46.267 46.6782 46.267H10.2479C9.64383 46.267 9.15414 46.7567 9.15414 47.3608C9.15414 47.9648 9.64383 48.4545 10.2479 48.4545ZM78.0618 70.7528C78.4443 71.5745 78.6226 72.3797 78.6226 73.2866V76.9945C78.6226 78.3069 77.5548 79.3747 76.2424 79.3747H74.254C72.9416 79.3747 71.874 78.3069 71.874 76.9945V73.2866C71.874 72.3798 72.0521 71.5748 72.4346 70.7528L72.6685 70.2502C72.0741 69.6289 71.7079 68.7878 71.7079 67.8623C71.7079 66.3381 72.6996 65.042 74.0715 64.5831V59.9611L69.3698 61.2209V70.4106C69.3698 70.7947 69.1682 71.1506 68.839 71.3484C64.6235 73.8789 59.6496 75.2166 54.4557 75.2166C54.4526 75.2166 54.4495 75.2166 54.4462 75.2166H2.4707C1.86664 75.2166 1.37695 74.7269 1.37695 74.1228V6.42188C1.37695 5.81781 1.86664 5.32812 2.4707 5.32812H38.0105C38.5288 2.64359 40.9105 0.625 43.7016 0.625C46.5241 0.625 48.8805 2.65297 49.3937 5.32812H54.4554C55.0595 5.32812 55.5491 5.81781 55.5491 6.42188V49.752C55.6616 49.7755 55.7746 49.8017 55.8888 49.8322L76.5657 55.3725C77.4655 55.6138 78.0699 56.4016 78.0699 57.3328C78.0699 58.2641 77.4655 59.0519 76.5659 59.293L76.2588 59.3752V64.5834C77.6307 65.0423 78.6226 66.3384 78.6226 67.8627C78.6226 68.7297 78.301 69.5225 77.772 70.13L78.062 70.7531L78.0618 70.7528ZM55.3226 51.945C54.7227 51.7841 54.1879 51.7844 53.5884 51.945L33.4812 57.3325L53.5884 62.72C54.188 62.8808 54.723 62.8808 55.3224 62.72L68.9409 59.0711L55.0151 57.8122C54.4134 57.7577 53.9699 57.2259 54.0241 56.6244C54.0787 56.0227 54.6113 55.5783 55.212 55.6334L75.0702 57.4287L75.4298 57.3323L55.3226 51.9448V51.945ZM43.2491 10.0478V22.1616C43.2491 23.2814 44.1602 24.1925 45.2801 24.1925C46.3999 24.1925 47.311 23.2814 47.311 22.1616V7.51562H43.9062C45.1745 7.66203 46.1629 8.74094 46.1629 10.0478V19.1742C46.1629 19.7783 45.6732 20.268 45.0691 20.268C44.4651 20.268 43.9754 19.7783 43.9754 19.1742V10.0478C43.9754 9.85094 43.8091 9.68484 43.6123 9.68484C43.4154 9.68484 43.2491 9.85094 43.2491 10.0478ZM40.2668 5.32812H47.1412C46.6766 3.87109 45.3105 2.8125 43.7016 2.8125C42.1104 2.8125 40.7357 3.86734 40.2668 5.32812ZM43.3887 73.0291C42.241 72.5458 41.1324 71.9852 40.0721 71.3486C39.7427 71.1508 39.5413 70.7948 39.5413 70.4108V61.2213L32.3452 59.2931C31.4454 59.0517 30.8412 58.2641 30.8412 57.3328C30.8412 56.4016 31.4454 55.6139 32.3449 55.3727H32.3452L53.0223 49.8323C53.1363 49.8019 53.2493 49.7756 53.3616 49.7522V7.51562H49.4985V22.1616C49.4985 24.4877 47.6062 26.38 45.2801 26.38C42.954 26.38 41.0616 24.4877 41.0616 22.1616V10.0478C41.0616 8.74094 42.0501 7.66203 43.3184 7.51562H3.56445V73.0291H43.3887ZM67.1821 61.8073L55.8887 64.8334C55.3999 64.9644 54.9277 65.03 54.4555 65.03C53.9834 65.03 53.5112 64.9644 53.0223 64.8334L41.7288 61.8073V69.7823C45.4865 71.9069 49.869 73.0275 54.4455 73.0291H54.4554C59.0355 73.0291 63.4216 71.9081 67.182 69.7822V61.8072L67.1821 61.8073ZM73.8952 67.8627C73.8952 68.5628 74.4649 69.1325 75.1651 69.1325C75.8652 69.1325 76.4351 68.5628 76.4351 67.8627C76.4351 67.1625 75.8654 66.5927 75.1651 66.5927C74.4648 66.5927 73.8952 67.1623 73.8952 67.8627ZM76.4351 73.2869C76.4351 72.6947 76.3284 72.213 76.0787 71.6761L75.8784 71.2456C75.648 71.2941 75.4096 71.32 75.1652 71.32C74.9744 71.32 74.7876 71.3037 74.6051 71.2739L74.418 71.6759C74.1682 72.213 74.0616 72.6947 74.0616 73.2869V76.9948C74.0616 77.0975 74.1516 77.1875 74.2541 77.1875H76.2426C76.3452 77.1875 76.4352 77.0975 76.4352 76.9948V73.2869H76.4351ZM10.2479 28.0241H22.584C23.188 28.0241 23.6777 27.5344 23.6777 26.9303V18.138C23.6777 18.0833 23.6724 18.03 23.6646 17.9775L26.3235 15.3186C26.7505 14.8914 26.7505 14.1989 26.3235 13.7717C25.8963 13.3448 25.2038 13.3448 24.7766 13.7717L17.5552 20.9933L16.073 18.4259C15.7709 17.9028 15.1023 17.7239 14.579 18.0256C14.0559 18.3278 13.8766 18.9967 14.1787 19.5197L16.3737 23.3214C16.5438 23.6159 16.841 23.8145 17.178 23.8589C17.2259 23.8652 17.2734 23.8683 17.3209 23.8683C17.6091 23.8683 17.8879 23.7544 18.0943 23.548L21.4902 20.152V25.8367H11.3416V15.6878H18.6926C19.2966 15.6878 19.7863 15.1981 19.7863 14.5941C19.7863 13.99 19.2966 13.5003 18.6926 13.5003H10.2479C9.64383 13.5003 9.15414 13.99 9.15414 14.5941V26.9302C9.15414 27.5342 9.64383 28.0239 10.2479 28.0239V28.0241Z" fill="#A8302E"/>
</svg>
