<svg width="80" height="80" viewBox="0 0 80 80" fill="none" xmlns="http://www.w3.org/2000/svg">
<path fill-rule="evenodd" clip-rule="evenodd" d="M32.7969 72.7059V73.4531C32.7981 73.8076 32.9394 74.1473 33.1901 74.3979C33.4407 74.6486 33.7804 74.7899 34.1349 74.791H46.2688C46.6233 74.7899 46.963 74.6486 47.2137 74.3979C47.4644 74.1473 47.6058 73.8076 47.6069 73.4531V72.706L32.7969 72.7059ZM49.0099 49.5542H52.0646V32.5735H49.0099V49.5542ZM39.7382 49.5542H42.7929V37.5026H39.7382V49.5542ZM30.5624 49.5542H33.6171V43.9468H30.5626V49.5542H30.5624ZM27.1809 51.5503C27.0487 51.5519 26.9176 51.5273 26.7951 51.4779C26.6725 51.4285 26.561 51.3552 26.467 51.2624C26.373 51.1696 26.2984 51.059 26.2474 50.9371C26.1965 50.8152 26.1702 50.6843 26.1702 50.5522C26.1702 50.4201 26.1965 50.2893 26.2474 50.1674C26.2984 50.0455 26.373 49.9349 26.467 49.842C26.561 49.7492 26.6725 49.6759 26.7951 49.6265C26.9176 49.5771 27.0487 49.5525 27.1809 49.5542H28.5662V42.9489C28.5662 42.6841 28.6713 42.4303 28.8585 42.2431C29.0457 42.0559 29.2996 41.9507 29.5643 41.9507H34.6151C34.8798 41.9507 35.1337 42.0559 35.3209 42.2431C35.508 42.4303 35.6132 42.6841 35.6132 42.9489V49.5542H37.7419V36.5045C37.7419 36.2398 37.8471 35.9859 38.0343 35.7987C38.2215 35.6115 38.4754 35.5064 38.7401 35.5064H43.7909C44.0556 35.5064 44.3094 35.6115 44.4966 35.7987C44.6838 35.9859 44.789 36.2398 44.789 36.5045V49.5542H47.0137V31.5754C47.0137 31.4443 47.0395 31.3146 47.0896 31.1935C47.1398 31.0724 47.2133 30.9623 47.306 30.8696C47.3987 30.777 47.5087 30.7034 47.6298 30.6533C47.7509 30.6031 47.8807 30.5773 48.0118 30.5773H53.0626C53.3273 30.5773 53.5811 30.6825 53.7683 30.8697C53.9554 31.0569 54.0605 31.3107 54.0605 31.5754V49.5637C54.3107 49.5988 54.5382 49.7275 54.6973 49.9237C54.8563 50.12 54.935 50.3692 54.9175 50.6212C54.9001 50.8732 54.7877 51.1092 54.6031 51.2816C54.4185 51.454 54.1753 51.55 53.9227 51.5503H27.1809ZM22.2832 8.42074L19.0319 9.76449L19.5291 10.9676C19.6216 11.1812 19.6362 11.4204 19.5706 11.6437C19.5049 11.867 19.3631 12.0602 19.1698 12.1898C17.8084 13.1055 16.6374 14.2764 15.7215 15.6376C15.5928 15.8281 15.4022 15.9683 15.182 16.0344C14.9618 16.1005 14.7255 16.0885 14.5132 16.0004L13.2954 15.4943L11.9476 18.7406L13.1269 19.2303C13.3495 19.312 13.5357 19.4703 13.6521 19.6769C13.7685 19.8834 13.8075 20.1247 13.7621 20.3575C13.4421 21.9687 13.4396 23.6269 13.7548 25.239C13.7971 25.4643 13.7606 25.6972 13.6516 25.8988C13.5425 26.1004 13.3674 26.2583 13.1557 26.3461L11.939 26.8487L13.2827 30.1L14.4858 29.6029C14.6994 29.5104 14.9386 29.4957 15.1619 29.5614C15.3852 29.6271 15.5784 29.7689 15.7079 29.9623C16.6237 31.3236 17.7946 32.4947 19.1558 33.4107C19.3464 33.5394 19.4866 33.7299 19.5527 33.9501C19.6188 34.1703 19.6068 34.4065 19.5187 34.6189L19.013 35.8367L22.2594 37.1845L22.749 36.0053C22.8307 35.7827 22.989 35.5965 23.1956 35.4801C23.4021 35.3636 23.6434 35.3246 23.8762 35.37C25.4874 35.69 27.1456 35.6925 28.7577 35.3773C28.983 35.3349 29.216 35.3713 29.4176 35.4804C29.6191 35.5895 29.7771 35.7646 29.8648 35.9764L30.3676 37.1929L33.6188 35.8492L33.1218 34.646C33.0293 34.4325 33.0146 34.1933 33.0803 33.97C33.146 33.7467 33.2878 33.5535 33.4812 33.424C34.8426 32.5084 36.0137 31.3375 36.9296 29.9762C37.0582 29.7857 37.2488 29.6454 37.4689 29.5793C37.6891 29.5131 37.9254 29.5251 38.1377 29.6132L39.3555 30.1189L40.7034 26.8726L39.5241 26.3831C39.3015 26.3014 39.1153 26.143 38.9989 25.9364C38.8824 25.7298 38.8434 25.4885 38.8888 25.2557C39.2088 23.6445 39.2113 21.9863 38.8962 20.3742C38.8538 20.1489 38.8903 19.916 38.9994 19.7144C39.1084 19.5128 39.2835 19.3549 39.4952 19.2671L40.7119 18.7643L39.3682 15.5132L38.1651 16.0103C37.9515 16.1027 37.7123 16.1174 37.489 16.0518C37.2657 15.9861 37.0725 15.8443 36.943 15.6509C36.0272 14.2897 34.8562 13.1188 33.4949 12.2031C33.3044 12.0744 33.1642 11.8839 33.0981 11.6637C33.032 11.4435 33.044 11.2073 33.1321 10.995L33.6377 9.77714L30.3907 8.42933L29.9018 9.60933C29.8201 9.83194 29.6618 10.0182 29.4552 10.1346C29.2486 10.251 29.0073 10.29 28.7746 10.2446C27.1634 9.92462 25.5052 9.92212 23.893 10.2373C23.6678 10.2796 23.4348 10.2432 23.2333 10.1341C23.0317 10.025 22.8738 9.84995 22.786 9.63824L22.2832 8.42152V8.42074ZM29.6251 15.876C31.0118 16.5371 32.1686 17.5987 32.9459 18.9237C33.7233 20.2488 34.0856 21.7765 33.986 23.3095L27.4969 22.0228L28.7832 15.5361C29.0702 15.6328 29.3513 15.7464 29.6251 15.876ZM33.5969 25.2653L26.134 23.7854C25.8744 23.7348 25.6456 23.5831 25.4979 23.3637C25.3502 23.1443 25.2957 22.8753 25.3463 22.6157L26.8282 15.1451C25.6806 15.0687 24.5307 15.2523 23.464 15.6823C21.4249 16.7171 20.1485 17.6648 19.2357 19.8634C18.8459 20.795 18.6437 21.7943 18.6408 22.8042C18.6379 23.814 18.8343 24.8145 19.2187 25.7484C19.6031 26.6822 20.168 27.531 20.881 28.2462C21.594 28.9613 22.4411 29.5288 23.3737 29.916C24.3064 30.3032 25.3063 30.5025 26.3162 30.5027C27.326 30.5028 28.326 30.3036 29.2588 29.9166C30.1915 29.5296 31.0387 28.9624 31.7519 28.2474C32.4651 27.5324 33.0301 26.6837 33.4148 25.75C33.481 25.5905 33.5418 25.429 33.5971 25.2656L33.5969 25.2653ZM35.811 24.6887C37.2641 17.3928 29.938 10.8565 22.6379 13.8701C21.1683 14.4768 19.871 15.4366 18.8609 16.6645C17.8509 17.8923 17.1592 19.3503 16.8473 20.9093C16.5353 22.4684 16.6127 24.0802 17.0726 25.6022C17.5324 27.1242 18.3606 28.5092 19.4836 29.6347C20.6066 30.7601 21.9899 31.5912 23.5109 32.0544C25.0318 32.5175 26.6436 32.5983 28.2032 32.2898C29.7629 31.9812 31.2224 31.2927 32.4524 30.2853C33.6825 29.2779 34.6451 27.9826 35.2549 26.5143C35.4992 25.9253 35.6854 25.3139 35.811 24.6887ZM39.0019 4.21089C39.0019 3.94617 39.1071 3.6923 39.2943 3.50511C39.4815 3.31793 39.7354 3.21277 40.0001 3.21277C40.2648 3.21277 40.5187 3.31793 40.7059 3.50511C40.893 3.6923 40.9982 3.94617 40.9982 4.21089V9.59199C40.9982 9.85671 40.893 10.1106 40.7059 10.2978C40.5187 10.485 40.2648 10.5901 40.0001 10.5901C39.7354 10.5901 39.4815 10.485 39.2943 10.2978C39.1071 10.1106 39.0019 9.85671 39.0019 9.59199V4.21089ZM4.30163 40.9075C4.16951 40.9091 4.03838 40.8845 3.91584 40.8351C3.79331 40.7857 3.6818 40.7124 3.58779 40.6196C3.49378 40.5268 3.41914 40.4162 3.36819 40.2943C3.31725 40.1724 3.29102 40.0415 3.29102 39.9094C3.29102 39.7773 3.31725 39.6465 3.36819 39.5246C3.41914 39.4027 3.49378 39.2921 3.58779 39.1992C3.6818 39.1064 3.79331 39.0331 3.91584 38.9837C4.03838 38.9343 4.16951 38.9097 4.30163 38.9114H9.68257C9.81468 38.9097 9.94581 38.9343 10.0684 38.9837C10.1909 39.0331 10.3024 39.1064 10.3964 39.1992C10.4904 39.2921 10.5651 39.4027 10.616 39.5246C10.6669 39.6465 10.6932 39.7773 10.6932 39.9094C10.6932 40.0415 10.6669 40.1724 10.616 40.2943C10.5651 40.4162 10.4904 40.5268 10.3964 40.6196C10.3024 40.7124 10.1909 40.7857 10.0684 40.8351C9.94581 40.8845 9.81468 40.9091 9.68257 40.9075H4.30163ZM9.57944 58.6203C9.35092 58.7516 9.07959 58.7868 8.82514 58.718C8.57069 58.6493 8.35397 58.4823 8.22264 58.2538C8.09132 58.0253 8.05616 57.7539 8.12488 57.4995C8.19361 57.245 8.36061 57.0283 8.58913 56.897L13.2501 54.2065C13.3632 54.1415 13.4881 54.0994 13.6175 54.0826C13.7469 54.0658 13.8784 54.0747 14.0044 54.1088C14.1304 54.1428 14.2484 54.2013 14.3518 54.281C14.4552 54.3606 14.5418 54.4598 14.6069 54.573C14.6719 54.6861 14.714 54.811 14.7308 54.9404C14.7475 55.0698 14.7387 55.2013 14.7046 55.3273C14.6706 55.4533 14.6121 55.5713 14.5324 55.6747C14.4528 55.7781 14.3535 55.8648 14.2404 55.9298L9.57944 58.6203ZM71.411 56.897C71.5242 56.962 71.6234 57.0487 71.7031 57.1521C71.7827 57.2554 71.8412 57.3735 71.8753 57.4995C71.9093 57.6255 71.9182 57.7569 71.9014 57.8864C71.8846 58.0158 71.8425 58.1406 71.7775 58.2538C71.7125 58.3669 71.6258 58.4662 71.5224 58.5458C71.419 58.6255 71.301 58.684 71.175 58.718C71.049 58.7521 70.9175 58.7609 70.7881 58.7442C70.6587 58.7274 70.5339 58.6853 70.4207 58.6203L65.7605 55.9298C65.532 55.7985 65.365 55.5818 65.2963 55.3273C65.2276 55.0729 65.2627 54.8015 65.3941 54.573C65.5254 54.3445 65.7421 54.1775 65.9966 54.1088C66.251 54.04 66.5223 54.0752 66.7509 54.2065L71.411 56.897ZM75.6985 38.9114C75.8306 38.9097 75.9618 38.9343 76.0843 38.9837C76.2068 39.0331 76.3183 39.1064 76.4124 39.1992C76.5064 39.2921 76.581 39.4027 76.632 39.5246C76.6829 39.6465 76.7091 39.7773 76.7091 39.9094C76.7091 40.0415 76.6829 40.1724 76.632 40.2943C76.581 40.4162 76.5064 40.5268 76.4124 40.6196C76.3183 40.7124 76.2068 40.7857 76.0843 40.8351C75.9618 40.8845 75.8306 40.9091 75.6985 40.9075H70.3176C70.1855 40.9091 70.0543 40.8845 69.9318 40.8351C69.8092 40.7857 69.6977 40.7124 69.6037 40.6196C69.5097 40.5268 69.4351 40.4162 69.3841 40.2943C69.3332 40.1724 69.307 40.0415 69.307 39.9094C69.307 39.7773 69.3332 39.6465 69.3841 39.5246C69.4351 39.4027 69.5097 39.2921 69.6037 39.1992C69.6977 39.1064 69.8092 39.0331 69.9318 38.9837C70.0543 38.9343 70.1855 38.9097 70.3176 38.9114H75.6985ZM70.4173 21.1986C70.5305 21.1315 70.6559 21.0876 70.7862 21.0693C70.9165 21.051 71.0491 21.0587 71.1764 21.0919C71.3037 21.1252 71.4231 21.1834 71.5278 21.2631C71.6325 21.3428 71.7204 21.4424 71.7863 21.5563C71.8523 21.6701 71.895 21.7959 71.912 21.9264C71.9291 22.0569 71.9201 22.1894 71.8856 22.3164C71.8511 22.4434 71.7918 22.5623 71.7111 22.6662C71.6304 22.7701 71.5299 22.857 71.4154 22.9218L66.7548 25.6123C66.5263 25.7447 66.2545 25.7808 65.9994 25.7128C65.7442 25.6449 65.5265 25.4783 65.3941 25.2498C65.2618 25.0213 65.2256 24.7496 65.2936 24.4944C65.3616 24.2392 65.5281 24.0215 65.7566 23.8892L70.4168 21.1986H70.4173ZM56.9882 8.49542C57.053 8.38094 57.1399 8.28043 57.2438 8.19973C57.3478 8.11902 57.4666 8.0597 57.5936 8.02521C57.7206 7.99072 57.8531 7.98174 57.9836 7.99878C58.1141 8.01582 58.2399 8.05854 58.3537 8.12449C58.4676 8.19044 58.5673 8.27829 58.647 8.38298C58.7267 8.48767 58.7848 8.60712 58.8181 8.73442C58.8514 8.86173 58.8591 8.99436 58.8408 9.12466C58.8225 9.25495 58.7785 9.38033 58.7115 9.49355L56.0204 14.1528C55.888 14.3813 55.6703 14.5479 55.4152 14.6159C55.16 14.684 54.8882 14.6478 54.6597 14.5155C54.4311 14.3832 54.2645 14.1655 54.1965 13.9103C54.1285 13.6551 54.1646 13.3833 54.2969 13.1548L56.9876 8.49464L56.9882 8.49542ZM18.6318 37.8361L22.4149 39.4062C22.5357 39.4564 22.6653 39.4823 22.7961 39.4824C22.9269 39.4825 23.0565 39.4569 23.1774 39.4069C23.2983 39.357 23.4082 39.2837 23.5008 39.1913C23.5934 39.0988 23.6669 38.9891 23.7171 38.8682L24.3013 37.462C25.6369 37.6454 26.9912 37.6468 28.3271 37.4662L28.9076 38.8707C29.0079 39.1147 29.201 39.3089 29.4445 39.4106C29.6879 39.5122 29.9618 39.513 30.2059 39.4128L35.2959 37.3093C35.5399 37.209 35.734 37.0158 35.8357 36.7723C35.9373 36.5288 35.938 36.2549 35.8377 36.0109L35.2554 34.6018C35.7915 34.1966 36.299 33.755 36.7744 33.2801C37.2519 32.8035 37.6962 32.295 38.1044 31.7579L39.5107 32.342C39.7547 32.4433 40.029 32.4435 40.2732 32.3426C40.5174 32.2417 40.7115 32.0479 40.8129 31.8039L42.9246 26.7173C42.9748 26.5965 43.0007 26.4669 43.0008 26.3361C43.0009 26.2053 42.9753 26.0757 42.9253 25.9548C42.8754 25.8339 42.8021 25.724 42.7096 25.6314C42.6172 25.5388 42.5075 25.4653 42.3866 25.4151L40.9804 24.8311C41.072 24.1631 41.1183 23.4897 41.1188 22.8154C41.1199 22.1432 41.075 21.4717 40.9844 20.8056L42.3891 20.2251C42.6331 20.1248 42.8273 19.9317 42.9289 19.6882C43.0305 19.4447 43.0313 19.1709 42.931 18.9268L41.9418 16.5332C46.2658 16.8777 50.3873 18.51 53.7746 21.2196C57.1619 23.9292 59.6594 27.5917 60.9449 31.7345C62.2304 35.8774 62.2449 40.3104 60.9865 44.4615C59.7281 48.6126 57.2546 52.2914 53.8851 55.0231C52.701 55.9573 51.7477 57.1513 51.0989 58.5128C50.4501 59.8744 50.1231 61.3669 50.1434 62.875V63.9775C50.1413 64.7489 49.8339 65.4882 49.2884 66.0337C48.7429 66.5793 48.0036 66.8866 47.2321 66.8887H33.1916C32.4202 66.8866 31.681 66.5791 31.1357 66.0335C30.5903 65.4879 30.2831 64.7486 30.2813 63.9771V62.875C30.3016 61.3669 29.9747 59.8743 29.326 58.5127C28.6772 57.1511 27.7239 55.957 26.5399 55.0228C23.6815 52.701 21.5843 49.9118 20.271 46.802C19.0918 43.9645 18.5332 40.9075 18.6326 37.8364L18.6318 37.8361ZM49.5599 68.2957C48.8451 68.683 48.0448 68.8854 47.2318 68.8845H33.1916C32.3715 68.8854 31.5644 68.6793 30.8451 68.2853V70.7098H49.5599V68.2957ZM41.0984 14.4925C45.9169 14.6687 50.5669 16.3113 54.4269 19.201C58.2869 22.0906 61.173 26.0895 62.6995 30.6633C64.226 35.237 64.3202 40.1678 62.9695 44.7965C61.6188 49.4252 58.8875 53.5314 55.1407 56.5664C54.1882 57.3155 53.4219 58.2746 52.9015 59.3689C52.3811 60.4632 52.1207 61.6631 52.1407 62.8746V63.9771C52.1415 64.7862 51.941 65.5826 51.5571 66.2948V71.1265C51.5575 71.5262 51.4088 71.9117 51.1401 72.2076C51 72.3639 50.8287 72.489 50.6372 72.5748C50.4457 72.6606 50.2383 72.7053 50.0285 72.7059H49.6035V73.4531C49.6022 74.337 49.2505 75.1842 48.6255 75.8092C48.0005 76.4342 47.1532 76.7859 46.2693 76.7871H34.1343C33.2504 76.7859 32.4031 76.4342 31.7781 75.8092C31.1531 75.1842 30.8014 74.337 30.8001 73.4531V72.706H30.3774C30.1676 72.7054 29.9602 72.6608 29.7687 72.5749C29.5772 72.4891 29.4059 72.364 29.2659 72.2078C28.9972 71.9118 28.8485 71.5264 28.8488 71.1267V66.2593C28.4772 65.5561 28.2834 64.7725 28.2843 63.9771V62.875C28.3043 61.6634 28.0439 60.4636 27.5235 59.3693C27.0031 58.275 26.2367 57.3158 25.2843 56.5667C22.1688 54.0364 19.8783 50.9843 18.4376 47.5737C16.9765 44.1142 16.3938 40.2992 16.7158 36.297C16.7158 36.297 16.7801 36.017 16.7901 35.9928L17.3741 34.5865C16.8371 34.1783 16.3285 33.734 15.8518 33.2567C15.3773 32.781 14.9361 32.2733 14.5313 31.737L13.1221 32.3193C12.8781 32.4196 12.6042 32.4189 12.3607 32.3173C12.1173 32.2156 11.9241 32.0215 11.8238 31.7775L9.7196 26.6875C9.61931 26.4434 9.62006 26.1696 9.72168 25.9261C9.8233 25.6826 10.0175 25.4895 10.2615 25.3892L11.6662 24.8087C11.4858 23.4728 11.4872 22.1186 11.6704 20.7831L10.2641 20.1989C10.1433 20.1487 10.0335 20.0752 9.94111 19.9826C9.84868 19.89 9.7754 19.7801 9.72545 19.6592C9.67549 19.5383 9.64984 19.4087 9.64996 19.2779C9.65009 19.147 9.67598 19.0175 9.72616 18.8967L11.8371 13.8101C11.9384 13.5661 12.1326 13.3723 12.3768 13.2714C12.621 13.1705 12.8952 13.1707 13.1393 13.272L14.5455 13.8561C14.9538 13.3191 15.3981 12.8106 15.8754 12.334C16.3508 11.8591 16.8584 11.4175 17.3946 11.0123L16.8121 9.60292C16.7118 9.3589 16.7126 9.08504 16.8142 8.84157C16.9158 8.5981 17.11 8.40496 17.354 8.30464L22.444 6.20121C22.5648 6.15153 22.6942 6.12614 22.8249 6.12648C22.9555 6.12683 23.0848 6.15291 23.2054 6.20323C23.3259 6.25355 23.4354 6.32712 23.5275 6.41975C23.6196 6.51238 23.6926 6.62225 23.7423 6.74308L24.3227 8.14792C24.9888 8.05739 25.6603 8.0125 26.3326 8.01355C27.0068 8.01408 27.6802 8.06033 28.3482 8.15199L28.9324 6.74574C28.9826 6.62491 29.0561 6.51515 29.1487 6.42272C29.2413 6.33029 29.3512 6.25701 29.4721 6.20705C29.593 6.1571 29.7226 6.13145 29.8534 6.13157C29.9842 6.1317 30.1138 6.15759 30.2346 6.20777L35.3219 8.31886C35.5659 8.42023 35.7597 8.61436 35.8606 8.85856C35.9615 9.10276 35.9612 9.37703 35.8599 9.62105L35.276 11.0273C35.813 11.4354 36.3215 11.8797 36.798 12.357C37.2729 12.8325 37.7146 13.3401 38.1198 13.8762L39.529 13.2937C39.773 13.1935 40.0469 13.1943 40.2903 13.2959C40.5338 13.3976 40.7269 13.5917 40.8273 13.8357L41.0984 14.4925Z" fill="#A8302E"/>
</svg>
