<svg width="80" height="80" viewBox="0 0 80 80" fill="none" xmlns="http://www.w3.org/2000/svg">
<path d="M78.75 24.7213V15.2775L75.2475 14.3862C75.0988 13.9875 74.9313 13.5875 74.7475 13.19L76.5963 10.0787L69.9188 3.40125L66.8075 5.25125C66.4112 5.0675 66.01 4.9 65.6125 4.75125L64.7213 1.25H55.2775L54.3875 4.7525C53.99 4.90125 53.5888 5.0675 53.1925 5.2525L50.0812 3.4025L45.0212 8.4625C43.2475 7.03125 41.0588 6.25 38.75 6.25C37.0213 6.25 35.3937 6.69125 33.9738 7.46625C31.4438 3.6125 27.1725 1.25 22.5 1.25C14.9187 1.25 8.75 7.41875 8.75 15C8.75 15.4475 8.78125 15.8938 8.825 16.3387C8.59375 16.3688 8.3625 16.3962 8.13125 16.445C4.8225 17.135 2.135 19.8225 1.445 23.1312C0.895 25.77 1.53625 28.4613 3.20625 30.5163C4.8775 32.5713 7.35375 33.75 10 33.75H20C20.69 33.75 21.25 34.3112 21.25 35V37.5C21.25 38.1888 20.69 38.75 20 38.75H11.25C9.1825 38.75 7.5 40.4325 7.5 42.5C7.5 44.5675 9.1825 46.25 11.25 46.25H22.5C23.19 46.25 23.75 46.8112 23.75 47.5V61.25H7.5C4.05375 61.25 1.25 64.0537 1.25 67.5C1.25 70.9463 4.05375 73.75 7.5 73.75H28.75V78.75H73.75V32.7662L76.5963 29.9187L74.7475 26.8075C74.9313 26.4112 75.0988 26.0112 75.2475 25.6125L78.75 24.7213ZM22.5 43.75H11.25C10.56 43.75 10 43.1888 10 42.5C10 41.8112 10.56 41.25 11.25 41.25H20C22.0675 41.25 23.75 39.5675 23.75 37.5V35C23.75 32.9325 22.0675 31.25 20 31.25H10C8.11 31.25 6.34125 30.4075 5.1475 28.9387C3.95375 27.47 3.49625 25.54 3.89125 23.6413C4.3825 21.2913 6.29 19.3825 8.64125 18.8925C10.5425 18.495 12.4712 18.9538 13.9388 20.1475C15.4075 21.3412 16.25 23.11 16.25 25H18.75C18.75 22.3538 17.5725 19.8787 15.5163 18.2075C14.3 17.2188 12.8587 16.5988 11.3375 16.365C11.2825 15.9125 11.25 15.4575 11.25 15C11.25 8.7975 16.2963 3.75 22.5 3.75C26.3638 3.75 29.89 5.725 31.95 8.93875C29.9875 10.765 28.75 13.3625 28.75 16.25H31.25C31.25 12.1138 34.6138 8.75 38.75 8.75C40.6188 8.75 42.38 9.4375 43.76 10.6812L45.2525 13.1925C45.0687 13.59 44.9012 13.9887 44.7525 14.3888L41.25 15.2787V24.7225L44.7525 25.6137C44.9012 26.0125 45.0687 26.4125 45.2525 26.8088L43.4037 29.92L44.7337 31.25H26.25V33.75H28.75V61.25H26.25V47.5C26.25 45.4325 24.5675 43.75 22.5 43.75ZM16.25 71.25H13.75V63.75H16.25V71.25ZM18.75 68.75H33.75V71.25H18.75V68.75ZM36.25 64.3037L43.3913 66.9812C43.6063 67.0625 43.75 67.27 43.75 67.5C43.75 67.73 43.6063 67.9375 43.39 68.0188L36.25 70.6963V64.3037ZM33.75 66.25H18.75V63.75H33.75V66.25ZM3.75 67.5C3.75 65.4325 5.4325 63.75 7.5 63.75H11.25V71.25H7.5C5.4325 71.25 3.75 69.5675 3.75 67.5ZM71.25 76.25H31.25V73.75H35.2275L44.2675 70.36C45.4525 69.9162 46.25 68.7663 46.25 67.5C46.25 66.2337 45.4525 65.0838 44.2688 64.64L35.2275 61.25H31.25V33.75H47.2337L50.0812 36.5975L53.1925 34.7475C53.5888 34.9313 53.99 35.0988 54.3875 35.2475L55.2787 38.75H64.7225L65.6138 35.2475C66.0113 35.0988 66.4125 34.9325 66.8087 34.7475L69.92 36.5975L71.25 35.2663V76.25ZM73.3075 23.5262L73.0975 24.1863C72.8737 24.885 72.5775 25.5925 72.2175 26.29L71.8975 26.9062L73.455 29.5263L69.5262 33.455L66.9075 31.8975L66.2925 32.215C65.5925 32.5763 64.885 32.8713 64.185 33.095L63.525 33.3063L62.7787 36.25H57.2225L56.475 33.3075L55.815 33.0962C55.115 32.8725 54.4075 32.5775 53.7075 32.2163L53.0925 31.8987L50.4738 33.4562L46.545 29.5275L48.1025 26.9075L47.7825 26.2913C47.4225 25.5938 47.1262 24.8862 46.9025 24.1875L46.6925 23.5275L43.75 22.7787V17.2225L46.6925 16.4738L46.9025 15.8138C47.1262 15.1163 47.4225 14.4075 47.7838 13.71L48.1025 13.0938L46.545 10.475L50.4738 6.54625L53.0925 8.10375L53.7075 7.78625C54.4075 7.425 55.115 7.13 55.815 6.90625L56.475 6.695L57.2213 3.75H62.7775L63.525 6.6925L64.185 6.90375C64.885 7.1275 65.5925 7.4225 66.2925 7.78375L66.9075 8.10125L69.5262 6.54375L73.455 10.4725L71.8975 13.0912L72.2162 13.7075C72.5775 14.4062 72.8737 15.1138 73.0975 15.8113L73.3075 16.4713L76.25 17.2213V22.7775L73.3075 23.5262Z" fill="#A8302E"/>
<path d="M60 8.75C53.7963 8.75 48.75 13.7975 48.75 20C48.75 26.2025 53.7963 31.25 60 31.25C66.2038 31.25 71.25 26.2025 71.25 20C71.25 13.7975 66.2038 8.75 60 8.75ZM60 28.75C55.1762 28.75 51.25 24.825 51.25 20C51.25 15.175 55.1762 11.25 60 11.25C64.8237 11.25 68.75 15.175 68.75 20C68.75 24.825 64.8237 28.75 60 28.75Z" fill="#A8302E"/>
<path d="M60 13.75C56.5538 13.75 53.75 16.5538 53.75 20C53.75 23.4462 56.5538 26.25 60 26.25C63.4462 26.25 66.25 23.4462 66.25 20C66.25 16.5538 63.4462 13.75 60 13.75ZM60 23.75C57.9325 23.75 56.25 22.0675 56.25 20C56.25 17.9325 57.9325 16.25 60 16.25C62.0675 16.25 63.75 17.9325 63.75 20C63.75 22.0675 62.0675 23.75 60 23.75Z" fill="#A8302E"/>
<path d="M36.25 55.7325L34.6337 54.1162L32.8662 55.8837L36.25 59.2675L43.3837 52.1337L41.6162 50.3662L36.25 55.7325Z" fill="#A8302E"/>
<path d="M36.25 45.7325L34.6337 44.1162L32.8662 45.8837L36.25 49.2675L43.3837 42.1337L41.6162 40.3662L36.25 45.7325Z" fill="#A8302E"/>
<path d="M46.25 41.25H68.75V43.75H46.25V41.25Z" fill="#A8302E"/>
<path d="M51.25 46.25H68.75V48.75H51.25V46.25Z" fill="#A8302E"/>
<path d="M46.25 46.25H48.75V48.75H46.25V46.25Z" fill="#A8302E"/>
<path d="M46.25 51.25H68.75V53.75H46.25V51.25Z" fill="#A8302E"/>
<path d="M66.25 56.25H68.75V58.75H66.25V56.25Z" fill="#A8302E"/>
<path d="M46.25 56.25H63.75V58.75H46.25V56.25Z" fill="#A8302E"/>
<path d="M52.5 63.75C50.4325 63.75 48.75 65.4325 48.75 67.5C48.75 69.5675 50.4325 71.25 52.5 71.25C54.5675 71.25 56.25 69.5675 56.25 67.5C56.25 65.4325 54.5675 63.75 52.5 63.75ZM52.5 68.75C51.81 68.75 51.25 68.1887 51.25 67.5C51.25 66.8112 51.81 66.25 52.5 66.25C53.19 66.25 53.75 66.8112 53.75 67.5C53.75 68.1887 53.19 68.75 52.5 68.75Z" fill="#A8302E"/>
<path d="M62.5 63.75C60.4325 63.75 58.75 65.4325 58.75 67.5C58.75 69.5675 60.4325 71.25 62.5 71.25C64.5675 71.25 66.25 69.5675 66.25 67.5C66.25 65.4325 64.5675 63.75 62.5 63.75ZM62.5 68.75C61.81 68.75 61.25 68.1887 61.25 67.5C61.25 66.8112 61.81 66.25 62.5 66.25C63.19 66.25 63.75 66.8112 63.75 67.5C63.75 68.1887 63.19 68.75 62.5 68.75Z" fill="#A8302E"/>
</svg>
