<svg width="80" height="80" viewBox="0 0 80 80" fill="none" xmlns="http://www.w3.org/2000/svg">
<g clip-path="url(#clip0_673_229)">
<path d="M66.6667 50.736V5.33333C66.6667 2.38781 64.2789 0 61.3333 0H5.33333C2.38781 0 0 2.38781 0 5.33333V73.3333C0 76.2789 2.38781 78.6667 5.33333 78.6667H59.2587C64.5634 81.0892 70.7995 80.1366 75.139 76.2408C79.4786 72.3451 81.0958 66.2475 79.2574 60.7132C77.419 55.1789 72.4747 51.2609 66.6667 50.736ZM5.33333 2.66667H61.3333C62.8061 2.66667 64 3.86057 64 5.33333V10.6667H2.66667V5.33333C2.66667 3.86057 3.86057 2.66667 5.33333 2.66667ZM5.33333 76C3.86057 76 2.66667 74.8061 2.66667 73.3333V13.3333H64V50.736C58.2529 51.2508 53.3444 55.0937 51.4653 60.5493C49.5863 66.0049 51.0875 72.0554 55.2987 76H5.33333ZM65.3333 77.3333C58.7059 77.3333 53.3333 71.9608 53.3333 65.3333C53.3333 58.7059 58.7059 53.3333 65.3333 53.3333C71.9608 53.3333 77.3333 58.7059 77.3333 65.3333C77.326 71.9577 71.9577 77.326 65.3333 77.3333Z" fill="#A8302E"/>
<path d="M69.6001 59.2001L62.5227 68.6361L60.9427 67.0561C60.4196 66.5508 59.5879 66.558 59.0736 67.0723C58.5593 67.5867 58.5521 68.4183 59.0574 68.9414L61.7241 71.6081C61.9738 71.8587 62.3129 71.9997 62.6667 72.0001H62.7614C63.1474 71.9718 63.5022 71.7772 63.7334 71.4668L71.7334 60.8001C72.0192 60.419 72.08 59.9144 71.8929 59.4763C71.7058 59.0383 71.2991 58.7333 70.8262 58.6763C70.3533 58.6194 69.8859 58.819 69.6001 59.2001Z" fill="#A8302E"/>
<path d="M6.66683 8.00138C7.40321 8.00138 8.00016 7.40443 8.00016 6.66805C8.00016 5.93167 7.40321 5.33472 6.66683 5.33472C5.93045 5.33472 5.3335 5.93167 5.3335 6.66805C5.3335 7.40443 5.93045 8.00138 6.66683 8.00138Z" fill="#A8302E"/>
<path d="M11.9998 8.00138C12.7362 8.00138 13.3332 7.40443 13.3332 6.66805C13.3332 5.93167 12.7362 5.33472 11.9998 5.33472C11.2635 5.33472 10.6665 5.93167 10.6665 6.66805C10.6665 7.40443 11.2635 8.00138 11.9998 8.00138Z" fill="#A8302E"/>
<path d="M17.3333 8.00138C18.0697 8.00138 18.6667 7.40443 18.6667 6.66805C18.6667 5.93167 18.0697 5.33472 17.3333 5.33472C16.597 5.33472 16 5.93167 16 6.66805C16 7.40443 16.597 8.00138 17.3333 8.00138Z" fill="#A8302E"/>
<path d="M46.6668 7.99992H60.0002C60.7365 7.99992 61.3335 7.40297 61.3335 6.66659C61.3335 5.93021 60.7365 5.33325 60.0002 5.33325H46.6668C45.9304 5.33325 45.3335 5.93021 45.3335 6.66659C45.3335 7.40297 45.9304 7.99992 46.6668 7.99992Z" fill="#A8302E"/>
<path d="M15.3588 25.2692L24.0001 27.4186V30.6666C24.0001 32.1393 25.194 33.3332 26.6668 33.3332H37.3334C38.8062 33.3332 40.0001 32.1393 40.0001 30.6666V27.4186L48.0001 25.4279V30.6666C48.0001 31.4029 48.597 31.9999 49.3334 31.9999C50.0698 31.9999 50.6668 31.4029 50.6668 30.6666V22.6666V22.6452C50.6683 21.4225 49.8341 20.3571 48.6468 20.0652L32.6468 16.0812C32.225 15.9746 31.7832 15.9746 31.3614 16.0812L15.3468 20.0706C14.1601 20.3775 13.3321 21.4495 13.335 22.6752C13.3378 23.901 14.1707 24.9677 15.3588 25.2692ZM37.3334 30.6666H26.6668L26.6508 26.2319C30.111 25.0374 33.8712 25.0341 37.3334 26.2226V30.6666ZM32.0001 18.6666L48.0001 22.6786L39.5588 24.7772C39.251 24.2921 38.7924 23.9216 38.2534 23.7226C34.2037 22.3127 29.7965 22.3127 25.7468 23.7226C25.2102 23.9218 24.7533 24.2907 24.4454 24.7732L16.0001 22.6546L32.0001 18.6666Z" fill="#A8302E"/>
<path d="M14.6668 36C11.7213 36 9.3335 38.3878 9.3335 41.3333C9.3335 44.2789 11.7213 46.6667 14.6668 46.6667C17.6123 46.6667 20.0002 44.2789 20.0002 41.3333C20.0002 38.3878 17.6123 36 14.6668 36ZM14.6668 44C13.1941 44 12.0002 42.8061 12.0002 41.3333C12.0002 39.8606 13.1941 38.6667 14.6668 38.6667C16.1396 38.6667 17.3335 39.8606 17.3335 41.3333C17.3335 42.8061 16.1396 44 14.6668 44Z" fill="#A8302E"/>
<path d="M14.6668 49.3333C11.7213 49.3333 9.3335 51.7211 9.3335 54.6666C9.3335 57.6121 11.7213 59.9999 14.6668 59.9999C17.6123 59.9999 20.0002 57.6121 20.0002 54.6666C20.0002 51.7211 17.6123 49.3333 14.6668 49.3333ZM14.6668 57.3333C13.1941 57.3333 12.0002 56.1393 12.0002 54.6666C12.0002 53.1938 13.1941 51.9999 14.6668 51.9999C16.1396 51.9999 17.3335 53.1938 17.3335 54.6666C17.3335 56.1393 16.1396 57.3333 14.6668 57.3333Z" fill="#A8302E"/>
<path d="M14.6668 62.6667C11.7213 62.6667 9.3335 65.0546 9.3335 68.0001C9.3335 70.9456 11.7213 73.3334 14.6668 73.3334C17.6123 73.3334 20.0002 70.9456 20.0002 68.0001C20.0002 65.0546 17.6123 62.6667 14.6668 62.6667ZM14.6668 70.6667C13.1941 70.6667 12.0002 69.4728 12.0002 68.0001C12.0002 66.5273 13.1941 65.3334 14.6668 65.3334C16.1396 65.3334 17.3335 66.5273 17.3335 68.0001C17.3335 69.4728 16.1396 70.6667 14.6668 70.6667Z" fill="#A8302E"/>
<path d="M22.6665 38.6666C22.6665 39.403 23.2635 39.9999 23.9998 39.9999H54.6665C55.4029 39.9999 55.9998 39.403 55.9998 38.6666C55.9998 37.9302 55.4029 37.3333 54.6665 37.3333H23.9998C23.2635 37.3333 22.6665 37.9302 22.6665 38.6666Z" fill="#A8302E"/>
<path d="M49.3335 45.3334C50.0699 45.3334 50.6668 44.7365 50.6668 44.0001C50.6668 43.2637 50.0699 42.6667 49.3335 42.6667H46.6668C45.9304 42.6667 45.3335 43.2637 45.3335 44.0001C45.3335 44.7365 45.9304 45.3334 46.6668 45.3334H49.3335Z" fill="#A8302E"/>
<path d="M23.9998 45.3334H41.3332C42.0696 45.3334 42.6665 44.7365 42.6665 44.0001C42.6665 43.2637 42.0696 42.6667 41.3332 42.6667H23.9998C23.2635 42.6667 22.6665 43.2637 22.6665 44.0001C22.6665 44.7365 23.2635 45.3334 23.9998 45.3334Z" fill="#A8302E"/>
<path d="M53.3332 50.6667H23.9998C23.2635 50.6667 22.6665 51.2637 22.6665 52.0001C22.6665 52.7365 23.2635 53.3334 23.9998 53.3334H53.3332C54.0696 53.3334 54.6665 52.7365 54.6665 52.0001C54.6665 51.2637 54.0696 50.6667 53.3332 50.6667Z" fill="#A8302E"/>
<path d="M46.6665 56H43.9998C43.2635 56 42.6665 56.597 42.6665 57.3333C42.6665 58.0697 43.2635 58.6667 43.9998 58.6667H46.6665C47.4029 58.6667 47.9998 58.0697 47.9998 57.3333C47.9998 56.597 47.4029 56 46.6665 56Z" fill="#A8302E"/>
<path d="M23.9998 56C23.2635 56 22.6665 56.597 22.6665 57.3333C22.6665 58.0697 23.2635 58.6667 23.9998 58.6667H38.6665C39.4029 58.6667 39.9998 58.0697 39.9998 57.3333C39.9998 56.597 39.4029 56 38.6665 56H23.9998Z" fill="#A8302E"/>
<path d="M45.3332 64H23.9998C23.2635 64 22.6665 64.597 22.6665 65.3333C22.6665 66.0697 23.2635 66.6667 23.9998 66.6667H45.3332C46.0696 66.6667 46.6665 66.0697 46.6665 65.3333C46.6665 64.597 46.0696 64 45.3332 64Z" fill="#A8302E"/>
<path d="M42.6665 69.3333H39.9998C39.2635 69.3333 38.6665 69.9302 38.6665 70.6666C38.6665 71.403 39.2635 71.9999 39.9998 71.9999H42.6665C43.4029 71.9999 43.9998 71.403 43.9998 70.6666C43.9998 69.9302 43.4029 69.3333 42.6665 69.3333Z" fill="#A8302E"/>
<path d="M34.6665 69.3333H23.9998C23.2635 69.3333 22.6665 69.9302 22.6665 70.6666C22.6665 71.403 23.2635 71.9999 23.9998 71.9999H34.6665C35.4029 71.9999 35.9998 71.403 35.9998 70.6666C35.9998 69.9302 35.4029 69.3333 34.6665 69.3333Z" fill="#A8302E"/>
</g>
<defs>
<clipPath id="clip0_673_229">
<rect width="80" height="80" fill="white"/>
</clipPath>
</defs>
</svg>
