<svg width="80" height="80" viewBox="0 0 80 80" fill="none" xmlns="http://www.w3.org/2000/svg">
<g clip-path="url(#clip0_673_257)">
<path d="M69.2176 53.3945C72.0883 51.3014 73.9994 48.1439 74.5225 44.6298C75.0456 41.1156 74.137 37.5387 72.0002 34.7001V4.24066C72.06 1.96773 70.2729 0.0732311 68.0003 0.000732422H4.00139C1.72893 0.0732311 -0.0583827 1.96773 0.00146002 4.24066V53.0931C-0.0583827 55.366 1.72877 57.2605 4.00139 57.333H24.3131L21.9131 61.3329H18.6678C16.4588 61.3329 14.6679 63.1238 14.6679 65.3329C14.6789 67.5374 16.4634 69.3219 18.6678 69.3328H42.6674V74.666C42.6674 77.6114 45.0552 79.9992 48.0006 79.9992H74.6669C77.6123 79.9992 80 77.6114 80 74.666V65.3329C79.9924 59.1798 75.3381 54.0265 69.2176 53.3945ZM61.3338 53.3331C55.4428 53.3331 50.6673 48.5575 50.6673 42.6665C50.6673 36.7756 55.4428 32 61.3338 32C67.2248 32 72.0003 36.7756 72.0003 42.6665C71.9936 48.5547 67.222 53.3265 61.3338 53.3331ZM4.00139 2.66725H68.0003C68.7946 2.74943 69.3829 3.44348 69.3335 4.2405V32.0253C64.4989 28.3765 57.8106 28.4512 53.0585 32.2069C48.3064 35.9628 46.6886 42.4528 49.1218 47.9997H40.0006V46.6665C39.99 40.8017 35.7449 35.8024 29.9594 34.8414C34.0446 31.7156 35.6832 26.3339 34.033 21.4619C32.3829 16.59 27.8113 13.3114 22.6675 13.3114C17.5237 13.3114 12.9519 16.5898 11.3019 21.4619C9.65191 26.334 11.2905 31.7156 15.3756 34.8414C9.59004 35.8024 5.34496 40.8017 5.33433 46.6665V47.9997H2.66813V4.24066C2.61891 3.44348 3.20703 2.74943 4.00139 2.66725ZM21.0425 40L20.3758 37.3334H24.9598L24.2931 40H21.0425ZM26.701 41.3666L27.7089 37.3334H28.001C29.2145 37.3334 30.4164 37.5716 31.5382 38.0348C30.754 41.3148 29.5352 44.4757 27.9143 47.4332L26.701 41.3666ZM22.6678 34.6667C17.5132 34.6667 13.3347 30.488 13.3347 25.3336C13.3347 20.1791 17.5133 16.0005 22.6678 16.0005C27.8222 16.0005 32.0009 20.1791 32.0009 25.3336C31.9951 30.4857 27.8199 34.6609 22.6678 34.6667ZM17.6265 37.3334L18.6344 41.3666L17.4212 47.4332C15.8002 44.4756 14.5815 41.3148 13.7972 38.0348C14.919 37.5718 16.1209 37.3335 17.3344 37.3334H17.6265ZM11.4106 39.4666C12.1702 42.4267 13.2672 45.2899 14.68 47.9997H8.00132V46.6665C8.00319 43.8773 9.25411 41.2355 11.4106 39.4666ZM21.0945 42.6665H24.2412L25.3079 47.9997H20.0278L21.0945 42.6665ZM33.9249 39.4666C36.0815 41.2355 37.3324 43.8773 37.3342 46.6665V47.9997H30.6558C32.0684 45.2899 33.1654 42.4269 33.9249 39.4666ZM2.66813 53.0931V50.6664H50.6926C51.4746 51.7047 52.4033 52.6236 53.4499 53.3943C51.9662 53.5479 50.5246 53.9795 49.2006 54.6663H4.00139C3.20703 54.5843 2.61891 53.8903 2.66813 53.0931ZM27.4224 57.333H45.7488C44.701 58.4977 43.8919 59.8567 43.3674 61.3329H25.0224L27.4224 57.333ZM18.6678 66.6661C18.3086 66.6672 17.9649 66.5196 17.7185 66.2582C17.4697 66.015 17.331 65.6807 17.3344 65.3329C17.3344 64.5965 17.9315 63.9996 18.6677 63.9996H42.7459C42.6948 64.4423 42.6685 64.8874 42.6673 65.3329V66.6661H18.6678ZM77.3335 74.666C77.3335 76.1388 76.1396 77.3327 74.6669 77.3327H48.0006C46.5278 77.3327 45.3339 76.1388 45.3339 74.666V65.3329C45.3399 60.1808 49.515 56.0055 54.6671 55.9997H68.0001C73.1522 56.0057 77.3274 60.1808 77.3332 65.3329V74.666H77.3335Z" fill="#A8302E"/>
<path d="M41.3344 26.6669H42.6677V29.2801C42.6695 30.2996 43.2395 31.2329 44.1458 31.7001C45.0518 32.1673 46.1429 32.0901 46.9743 31.5001L53.7609 26.6669H62.6675C64.8765 26.6669 66.6674 24.876 66.6674 22.667V9.33391C66.6674 7.12489 64.8765 5.33398 62.6675 5.33398H41.3344C39.1252 5.33398 37.3345 7.12489 37.3345 9.33391V22.667C37.3345 24.8761 39.1252 26.6669 41.3344 26.6669ZM40.001 9.33391C40.001 8.59752 40.5979 8.00066 41.3342 8.00066H62.6672C63.4035 8.00066 64.0004 8.59768 64.0004 9.33391V22.667C64.0004 23.4034 63.4034 24.0002 62.6672 24.0002H53.334C53.0567 24.0005 52.7864 24.0871 52.5608 24.2482L45.3342 29.2801V25.3335C45.3342 24.5971 44.7372 24.0002 44.0009 24.0002H41.3342C40.5979 24.0002 40.001 23.4032 40.001 22.667V9.33391Z" fill="#A8302E"/>
<path d="M44.0007 13.3338H50.6673C51.4037 13.3338 52.0006 12.7369 52.0006 12.0005C52.0006 11.2641 51.4037 10.6672 50.6673 10.6672H44.0007C43.2643 10.6672 42.6675 11.2643 42.6675 12.0005C42.6675 12.7369 43.2645 13.3338 44.0007 13.3338Z" fill="#A8302E"/>
<path d="M44.0007 18.667H60.0005C60.7369 18.667 61.3337 18.07 61.3337 17.3337C61.3337 16.5974 60.7369 16.0005 60.0005 16.0005H44.0007C43.2643 16.0005 42.6675 16.5975 42.6675 17.3337C42.6675 18.0701 43.2645 18.667 44.0007 18.667Z" fill="#A8302E"/>
</g>
<defs>
<clipPath id="clip0_673_257">
<rect width="80" height="80" fill="white"/>
</clipPath>
</defs>
</svg>
