<svg width="80" height="80" viewBox="0 0 80 80" fill="none" xmlns="http://www.w3.org/2000/svg">
<g clip-path="url(#clip0_673_251)">
<path d="M72 5.33336H63.2187L59.8387 1.95203C59.2209 1.33111 58.4861 0.838878 57.6768 0.503819C56.8676 0.168759 55.9999 -0.00247466 55.124 2.70206e-05H22.6667C20.5456 0.00214493 18.512 0.84568 17.0122 2.34551C15.5123 3.84534 14.6688 5.87894 14.6667 8.00003V38.6667H12C8.8174 38.6667 5.76516 39.931 3.51472 42.1814C1.26428 44.4319 0 47.4841 0 50.6667C0 53.8493 1.26428 56.9015 3.51472 59.152C5.76516 61.4024 8.8174 62.6667 12 62.6667H14.6667V66.6667C14.669 68.3885 15.2262 70.0638 16.2555 71.444C17.2849 72.8243 18.7317 73.8361 20.3813 74.3294C20.8726 75.9682 21.8791 77.405 23.2515 78.4265C24.6239 79.448 26.2891 79.9998 28 80H72C74.1211 79.9979 76.1547 79.1544 77.6545 77.6545C79.1544 76.1547 79.9979 74.1211 80 72V13.3334C79.9979 11.2123 79.1544 9.17868 77.6545 7.67885C76.1547 6.17901 74.1211 5.33548 72 5.33336ZM70.1133 16H61.3333C60.6261 16 59.9478 15.7191 59.4477 15.219C58.9476 14.7189 58.6667 14.0406 58.6667 13.3334V4.55203L70.1133 16ZM12 60C9.52465 60 7.15068 59.0167 5.40034 57.2664C3.65 55.516 2.66667 53.142 2.66667 50.6667C2.66667 48.1913 3.65 45.8174 5.40034 44.067C7.15068 42.3167 9.52465 41.3334 12 41.3334H14.6667V44H12C10.2319 44 8.5362 44.7024 7.28595 45.9526C6.03571 47.2029 5.33333 48.8986 5.33333 50.6667C5.33333 52.4348 6.03571 54.1305 7.28595 55.3807C8.5362 56.631 10.2319 57.3334 12 57.3334H14.6667V60H12ZM14.6667 49.3334H13.3333C12.9797 49.3334 12.6406 49.4738 12.3905 49.7239C12.1405 49.9739 12 50.3131 12 50.6667C12 51.0203 12.1405 51.3595 12.3905 51.6095C12.6406 51.8596 12.9797 52 13.3333 52H14.6667V54.6667H12C10.9391 54.6667 9.92172 54.2453 9.17157 53.4951C8.42143 52.745 8 51.7276 8 50.6667C8 49.6058 8.42143 48.5884 9.17157 47.8383C9.92172 47.0881 10.9391 46.6667 12 46.6667H14.6667V49.3334ZM17.3333 46.6667H32C32.3536 46.6667 32.6928 46.8072 32.9428 47.0572C33.1929 47.3073 33.3333 47.6464 33.3333 48C33.3333 48.3536 33.1929 48.6928 32.9428 48.9428C32.6928 49.1929 32.3536 49.3334 32 49.3334H17.3333V46.6667ZM17.3333 52H32C33.0609 52 34.0783 51.5786 34.8284 50.8285C35.5786 50.0783 36 49.0609 36 48C36 46.9392 35.5786 45.9217 34.8284 45.1716C34.0783 44.4215 33.0609 44 32 44H17.3333V41.3334H32C33.7681 41.3334 35.4638 42.0357 36.714 43.286C37.9643 44.5362 38.6667 46.2319 38.6667 48C38.6667 49.7681 37.9643 51.4638 36.714 52.7141C35.4638 53.9643 33.7681 54.6667 32 54.6667H17.3333V52ZM17.3333 66.6667V62.6667H28C28.3536 62.6667 28.6928 62.5262 28.9428 62.2762C29.1929 62.0261 29.3333 61.687 29.3333 61.3334C29.3333 60.9797 29.1929 60.6406 28.9428 60.3905C28.6928 60.1405 28.3536 60 28 60H17.3333V57.3334H32C34.4754 57.3334 36.8493 56.35 38.5997 54.5997C40.35 52.8494 41.3333 50.4754 41.3333 48C41.3333 45.5247 40.35 43.1507 38.5997 41.4004C36.8493 39.65 34.4754 38.6667 32 38.6667H17.3333V8.00003C17.3333 6.58554 17.8952 5.22898 18.8954 4.22879C19.8956 3.2286 21.2522 2.66669 22.6667 2.66669H55.124C55.4189 2.66896 55.7127 2.70384 56 2.77069V13.3334C56 14.7478 56.5619 16.1044 57.5621 17.1046C58.5623 18.1048 59.9188 18.6667 61.3333 18.6667H71.8933C71.9616 18.9538 71.9974 19.2476 72 19.5427V66.6667C72 68.0812 71.4381 69.4377 70.4379 70.4379C69.4377 71.4381 68.0812 72 66.6667 72H22.6667C21.2522 72 19.8956 71.4381 18.8954 70.4379C17.8952 69.4377 17.3333 68.0812 17.3333 66.6667ZM77.3333 72C77.3333 73.4145 76.7714 74.7711 75.7712 75.7713C74.771 76.7715 73.4145 77.3334 72 77.3334H28C27.0643 77.3346 26.1449 77.0886 25.3348 76.6203C24.5247 76.1521 23.8526 75.4781 23.3867 74.6667H66.6667C68.7878 74.6646 70.8214 73.821 72.3212 72.3212C73.821 70.8214 74.6646 68.7878 74.6667 66.6667V19.5427C74.6688 18.6669 74.4973 17.7994 74.162 16.9904C73.8267 16.1814 73.3343 15.4469 72.7133 14.8294L65.8853 8.00003H72C73.4145 8.00003 74.771 8.56193 75.7712 9.56212C76.7714 10.5623 77.3333 11.9189 77.3333 13.3334V72Z" fill="#A8302E"/>
<path d="M29.3335 6.66675H24.0002C23.2929 6.66675 22.6146 6.9477 22.1145 7.4478C21.6144 7.94789 21.3335 8.62617 21.3335 9.33341V14.6667C21.3335 15.374 21.6144 16.0523 22.1145 16.5524C22.6146 17.0525 23.2929 17.3334 24.0002 17.3334H29.3335C30.0407 17.3334 30.719 17.0525 31.2191 16.5524C31.7192 16.0523 32.0002 15.374 32.0002 14.6667V9.33341C32.0002 8.62617 31.7192 7.94789 31.2191 7.4478C30.719 6.9477 30.0407 6.66675 29.3335 6.66675ZM24.0002 14.6667V9.33341H29.3335V14.6667H24.0002Z" fill="#A8302E"/>
<path d="M35.9998 10.6667H41.3332C41.6868 10.6667 42.0259 10.5262 42.276 10.2761C42.526 10.0261 42.6665 9.68696 42.6665 9.33333C42.6665 8.97971 42.526 8.64057 42.276 8.39052C42.0259 8.14048 41.6868 8 41.3332 8H35.9998C35.6462 8 35.3071 8.14048 35.057 8.39052C34.807 8.64057 34.6665 8.97971 34.6665 9.33333C34.6665 9.68696 34.807 10.0261 35.057 10.2761C35.3071 10.5262 35.6462 10.6667 35.9998 10.6667Z" fill="#A8302E"/>
<path d="M46.6668 10.6667H52.0002C52.3538 10.6667 52.6929 10.5262 52.943 10.2761C53.193 10.0261 53.3335 9.68696 53.3335 9.33333C53.3335 8.97971 53.193 8.64057 52.943 8.39052C52.6929 8.14048 52.3538 8 52.0002 8H46.6668C46.3132 8 45.9741 8.14048 45.724 8.39052C45.474 8.64057 45.3335 8.97971 45.3335 9.33333C45.3335 9.68696 45.474 10.0261 45.724 10.2761C45.9741 10.5262 46.3132 10.6667 46.6668 10.6667Z" fill="#A8302E"/>
<path d="M51.9998 14.6666C51.9998 14.313 51.8594 13.9738 51.6093 13.7238C51.3593 13.4737 51.0201 13.3333 50.6665 13.3333H35.9998C35.6462 13.3333 35.3071 13.4737 35.057 13.7238C34.807 13.9738 34.6665 14.313 34.6665 14.6666C34.6665 15.0202 34.807 15.3593 35.057 15.6094C35.3071 15.8594 35.6462 15.9999 35.9998 15.9999H50.6665C51.0201 15.9999 51.3593 15.8594 51.6093 15.6094C51.8594 15.3593 51.9998 15.0202 51.9998 14.6666Z" fill="#A8302E"/>
</g>
<defs>
<clipPath id="clip0_673_251">
<rect width="80" height="80" fill="white"/>
</clipPath>
</defs>
</svg>
