<svg width="80" height="80" viewBox="0 0 80 80" fill="none" xmlns="http://www.w3.org/2000/svg">
<path d="M79.1516 65.8181C78.9092 65.5757 78.5455 65.3333 78.1819 65.3333H74.9092V23.3939C74.9092 20.9696 72.9698 18.909 70.4243 18.909H61.9395C59.5152 9.09084 50.5455 1.81812 40.0001 1.81812C29.4546 1.81812 20.4849 9.09084 18.0607 19.0302H9.57584C7.1516 19.0302 5.09099 20.9696 5.09099 23.5151V65.4545H1.81827C1.45463 65.4545 1.09099 65.5757 0.84857 65.9393C0.606146 66.1818 0.484934 66.6666 0.606146 67.0302L3.39402 77.4545C3.51524 77.9393 4.00009 78.303 4.60615 78.303H75.394C76.0001 78.303 76.3637 77.9393 76.6061 77.4545L79.394 67.0302C79.394 66.5454 79.394 66.1818 79.1516 65.8181ZM59.6365 39.3939V30.0605C62.1819 30.5454 64.0001 32.4848 64.0001 34.7878C64.0001 36.9696 62.1819 38.909 59.6365 39.3939ZM57.2122 40.9696H54.5455V28.4848H57.2122V40.9696ZM22.788 28.4848H25.4546V40.9696H22.788C22.788 29.0908 22.788 40.2424 22.788 28.4848ZM20.3637 39.3939C17.8183 38.909 16.0001 36.9696 16.0001 34.6666C16.0001 32.3636 17.9395 30.4242 20.3637 29.9393V39.3939ZM7.51524 23.3939C7.51524 22.303 8.36372 21.3333 9.57584 21.3333H17.5758C17.4546 22.303 17.3334 23.3939 17.3334 24.3636V28.4848C15.0304 29.8181 13.5758 31.9999 13.5758 34.5454C13.5758 38.1818 16.4849 41.0908 20.3637 41.6969V42.0605C20.3637 42.7878 20.8486 43.2727 21.5758 43.2727H26.6668C27.394 43.2727 27.8789 42.7878 27.8789 42.0605V27.2727C27.8789 26.5454 27.394 26.0605 26.6668 26.0605H21.5758C20.8486 26.0605 20.3637 26.5454 20.3637 27.2727V27.6363C20.1213 27.6363 20.0001 27.7575 19.7577 27.7575V24.4848C19.7577 13.3333 28.8486 4.24236 40.0001 4.24236C51.1516 4.24236 60.2425 13.3333 60.2425 24.4848V27.7575C60.0001 27.7575 59.8789 27.6363 59.6365 27.6363V27.2727C59.6365 26.5454 59.1516 26.0605 58.4243 26.0605H53.3334C52.6061 26.0605 52.1213 26.5454 52.1213 27.2727V42.1818C52.1213 42.909 52.6061 43.3939 53.3334 43.3939H58.4243C59.1516 43.3939 59.6365 42.909 59.6365 42.1818V41.8181C60.1213 41.6969 60.6061 41.6969 61.091 41.4545V48.9696C61.091 50.5454 59.7577 51.8787 58.1819 51.8787H49.091V51.0302C49.091 49.6969 48.0001 48.4848 46.5455 48.4848H35.8789C34.5455 48.4848 33.3334 49.5757 33.3334 51.0302V55.2727C33.3334 56.606 34.4243 57.8181 35.8789 57.8181H46.5455C47.8789 57.8181 49.091 56.7272 49.091 55.2727V54.4242H58.1819C61.091 54.4242 63.5152 51.9999 63.5152 49.0908V40.3636C65.3334 39.0302 66.5455 36.9696 66.5455 34.7878C66.5455 32.2424 64.9698 29.9393 62.788 28.7272V24.606C62.788 23.5151 62.6668 22.5454 62.5455 21.5757H70.5455C71.6365 21.5757 72.6061 22.4242 72.6061 23.6363V65.4545H7.51524V23.3939ZM46.6668 55.2727L35.8789 55.3939C35.8789 55.3939 35.7577 55.3939 35.7577 55.2727V51.0302C35.7577 51.0302 35.7577 50.909 35.8789 50.909H46.5455C46.5455 50.909 46.6668 50.909 46.6668 51.0302V55.2727ZM74.5455 75.7575H5.45463L3.39402 67.8787H76.6061L74.5455 75.7575Z" fill="#A8302E"/>
<path d="M39.0306 24.7273H50.4245C51.1518 24.7273 51.6366 24.2425 51.6366 23.5152V10.9091C51.6366 10.1819 51.1518 9.69702 50.4245 9.69702H29.4548C28.7275 9.69702 28.2427 10.1819 28.2427 10.9091V23.5152C28.2427 24.2425 28.7275 24.7273 29.4548 24.7273H31.6366V26.7879C31.6366 27.7576 32.6063 28.2425 33.4548 27.8788L39.0306 24.7273ZM30.6669 22.3031V12.1213H49.2124V22.3031H38.7881C38.5457 22.3031 38.4245 22.3031 38.1821 22.4243L34.1821 24.7273V23.5152C34.1821 22.7879 33.6972 22.3031 32.97 22.3031H30.6669Z" fill="#A8302E"/>
<path d="M34.3029 16.1213H45.8181C46.5454 16.1213 47.0302 15.6364 47.0302 14.9091C47.0302 14.1819 46.5454 13.697 45.8181 13.697H34.3029C33.5757 13.697 33.0908 14.1819 33.0908 14.9091C33.0908 15.6364 33.5757 16.1213 34.3029 16.1213Z" fill="#A8302E"/>
<path d="M45.697 20.1213C46.4243 20.1213 46.9091 19.6364 46.9091 18.9091C46.9091 18.1819 46.4243 17.697 45.697 17.697H34.1818C33.4546 17.697 32.9697 18.1819 32.9697 18.9091C32.9697 19.6364 33.4546 20.1213 34.1818 20.1213H45.697Z" fill="#A8302E"/>
</svg>
