<svg width="80" height="80" viewBox="0 0 80 80" fill="none" xmlns="http://www.w3.org/2000/svg">
<g clip-path="url(#clip0_673_208)">
<path d="M39.9561 19.4138C33.9575 19.4138 29.0771 24.2941 29.0771 30.2927C29.624 44.7052 50.2901 44.7013 50.835 30.2926C50.835 24.2941 45.9546 19.4138 39.9561 19.4138ZM41.1279 38.7477V37.573C41.0742 36.0213 38.8375 36.0226 38.7842 37.573V38.7477C35.0136 38.2277 32.0212 35.2354 31.5012 31.4648H32.6759C34.2276 31.411 34.2264 29.1743 32.6759 29.121H31.5012C33.0514 19.3654 46.8645 19.3723 48.4111 29.121H47.2364C45.6847 29.1748 45.6859 31.4115 47.2364 31.4648H48.4111C47.8909 35.2352 44.8986 38.2277 41.1279 38.7477Z" fill="#A8302E"/>
<path d="M39.9563 25.8301C39.3091 25.8301 38.7844 26.3548 38.7844 27.002V29.121H38.3108C36.7591 29.1748 36.7603 31.4115 38.3108 31.4648H39.9563C40.6034 31.4648 41.1281 30.9401 41.1281 30.2929V27.002C41.1281 26.3548 40.6034 25.8301 39.9563 25.8301Z" fill="#A8302E"/>
<path d="M10.835 46.0252H15.6886C16.3357 46.0252 16.8604 45.5005 16.8604 44.8534V35.1465C16.8604 34.4993 16.3357 33.9746 15.6886 33.9746H10.835C10.1878 33.9746 9.66309 34.4993 9.66309 35.1465V44.8534C9.66309 45.5005 10.1878 46.0252 10.835 46.0252ZM12.0068 36.3184H14.5167V43.6815H12.0068V36.3184Z" fill="#A8302E"/>
<path d="M20.542 46.0252C21.1892 46.0252 21.7139 45.5005 21.7139 44.8534V35.1465C21.6601 33.5948 19.4234 33.596 19.3701 35.1465V44.8534C19.3701 45.5005 19.8948 46.0252 20.542 46.0252Z" fill="#A8302E"/>
<path d="M10.835 60.5857H15.6886C16.3357 60.5857 16.8604 60.061 16.8604 59.4138V49.7068C16.8604 49.0596 16.3357 48.5349 15.6886 48.5349H10.835C10.1878 48.5349 9.66309 49.0596 9.66309 49.7068V59.4138C9.66309 60.061 10.1878 60.5857 10.835 60.5857ZM12.0068 50.8787H14.5167V58.2419H12.0068V50.8787Z" fill="#A8302E"/>
<path d="M20.542 60.5857C21.1892 60.5857 21.7139 60.061 21.7139 59.4138V49.7068C21.6601 48.1551 19.4234 48.1563 19.3701 49.7068V59.4138C19.3701 60.061 19.8948 60.5857 20.542 60.5857Z" fill="#A8302E"/>
<path d="M10.835 75.146H15.6886C16.3357 75.146 16.8604 74.6213 16.8604 73.9741V64.2671C16.8604 63.6199 16.3357 63.0952 15.6886 63.0952H10.835C10.1878 63.0952 9.66309 63.6199 9.66309 64.2671V73.9741C9.66309 74.6213 10.1878 75.146 10.835 75.146ZM12.0068 65.4391H14.5167V72.8024H12.0068V65.4391Z" fill="#A8302E"/>
<path d="M20.542 75.146C21.1892 75.146 21.7139 74.6213 21.7139 73.9741V64.2671C21.6601 62.7154 19.4234 62.7166 19.3701 64.2671V73.9741C19.3701 74.6213 19.8948 75.146 20.542 75.146Z" fill="#A8302E"/>
<path d="M70.2491 35.1465C70.2491 34.4993 69.7244 33.9746 69.0772 33.9746H64.2236C63.5764 33.9746 63.0518 34.4993 63.0518 35.1465V44.8534C63.0518 45.5005 63.5764 46.0252 64.2236 46.0252H69.0772C69.7244 46.0252 70.2491 45.5005 70.2491 44.8534V35.1465ZM67.9054 43.6815H65.3957V36.3184H67.9055L67.9054 43.6815Z" fill="#A8302E"/>
<path d="M60.542 35.1465C60.4882 33.5948 58.2515 33.596 58.1982 35.1465V44.8534C58.252 46.4051 60.4887 46.4038 60.542 44.8534V35.1465Z" fill="#A8302E"/>
<path d="M70.2491 49.7068C70.2491 49.0596 69.7244 48.5349 69.0772 48.5349H64.2236C63.5764 48.5349 63.0518 49.0596 63.0518 49.7068V59.4138C63.0518 60.061 63.5764 60.5857 64.2236 60.5857H69.0772C69.7244 60.5857 70.2491 60.061 70.2491 59.4138V49.7068ZM67.9054 58.2418H65.3957V50.8785H67.9055L67.9054 58.2418Z" fill="#A8302E"/>
<path d="M60.542 49.7068C60.4882 48.1551 58.2515 48.1563 58.1982 49.7068V59.4138C58.252 60.9655 60.4887 60.9643 60.542 59.4138V49.7068Z" fill="#A8302E"/>
<path d="M69.0772 63.0955H64.2236C63.5764 63.0955 63.0518 63.6201 63.0518 64.2673V73.9744C63.0518 74.6216 63.5764 75.1462 64.2236 75.1462H69.0772C69.7244 75.1462 70.2491 74.6216 70.2491 73.9744V64.2673C70.2491 63.62 69.7244 63.0955 69.0772 63.0955ZM67.9054 72.8023H65.3957V65.4391H67.9055L67.9054 72.8023Z" fill="#A8302E"/>
<path d="M59.3701 63.0955C58.7229 63.0955 58.1982 63.6201 58.1982 64.2673V73.9744C58.252 75.5261 60.4887 75.5248 60.542 73.9744V64.2673C60.542 63.62 60.0173 63.0955 59.3701 63.0955Z" fill="#A8302E"/>
<path d="M77.4056 29.7687L74.9788 24.9153C74.7802 24.5182 74.3746 24.2675 73.9307 24.2675H55.6885V15.7323C55.6885 15.0851 55.1638 14.5604 54.5167 14.5604H50.8345V8.48809L53.3448 7.65137V8.45215C53.3448 10.4365 54.9592 12.0507 56.9434 12.0507C57.5906 12.0507 58.1152 11.5261 58.1152 10.8789C58.1152 10.2317 57.5906 9.70699 56.9434 9.70699C56.2515 9.70699 55.6885 9.14402 55.6885 8.45215V6.02527C55.6885 5.5109 55.3427 5.05371 54.8632 4.90559L40.3266 0.0601172C40.0862 -0.0200391 39.826 -0.0200391 39.5856 0.0601172L25.0251 4.91371C23.706 5.42949 23.706 6.60137 25.0251 7.1373L29.0779 8.48824V14.5606H25.3957C24.7485 14.5606 24.2238 15.0853 24.2238 15.7325V24.2671H18.242C17.5948 24.2671 17.0701 24.7918 17.0701 25.439C17.0701 26.0862 17.5948 26.6109 18.242 26.6109H24.2232V29.1211L5.45024 29.1215L6.70524 26.6106H13.1356C13.7827 26.6106 14.3074 26.0859 14.3074 25.4387C14.3074 24.7915 13.7827 24.2668 13.1356 24.2668H5.98086C5.53696 24.2668 5.13102 24.5176 4.93258 24.9146L2.50602 29.7693C2.22508 30.7242 2.57446 31.2895 3.5543 31.4653H4.80977V78.8276C4.80977 79.4748 5.33446 79.9995 5.98165 79.9995L73.9313 80C74.5785 80 75.1032 79.4753 75.1032 78.8281V57.1139C75.1032 56.4667 74.5785 55.942 73.9313 55.942C73.2841 55.942 72.7595 56.4667 72.7595 57.1139V77.6562H55.6891V31.4654H72.7595V52.0062C72.7595 52.6534 73.2841 53.1781 73.9313 53.1781C74.5785 53.1781 75.1032 52.6534 75.1032 52.0062V31.4646H76.3574C77.3782 31.4646 77.886 30.7811 77.4056 29.7687ZM24.2238 77.6559H7.15352V31.4654H24.2237V77.6559H24.2238ZM39.9562 2.40715L50.8109 6.02543L39.9562 9.64355L29.1015 6.02543L39.9562 2.40715ZM48.4906 9.26934V14.5604H31.4216V9.26934L39.5856 11.9906C39.8326 12.0707 40.0796 12.0707 40.3266 11.9906L48.4906 9.26934ZM46.064 77.6559H41.1281V60.5857H46.064V77.6559ZM53.3448 77.6559H48.4077V59.4139C48.4077 58.7667 47.8831 58.242 47.2359 58.242H39.9682C39.9601 58.2418 39.9521 58.2418 39.944 58.242H32.6763C32.0291 58.242 31.5045 58.7667 31.5045 59.4139V66.1217C31.5582 67.6734 33.7949 67.6721 33.8482 66.1217V60.5857H38.7841V77.6559H33.8482V71.2296C33.7945 69.6779 31.5577 69.6792 31.5045 71.2296V77.6559H26.5674V16.9042H53.3446V77.6559H53.3448ZM55.6885 29.1209V26.6112H73.2063L74.4612 29.1209H55.6885Z" fill="#A8302E"/>
<path d="M35.1026 43.6814H30.249C29.6018 43.6814 29.0771 44.2061 29.0771 44.8533V54.5603C29.0771 55.2075 29.6018 55.7322 30.249 55.7322H35.1026C35.7498 55.7322 36.2745 55.2075 36.2745 54.5603V44.8533C36.2745 44.2061 35.7498 43.6814 35.1026 43.6814ZM33.9307 53.3884H31.4209V46.0251H33.9307V53.3884Z" fill="#A8302E"/>
<path d="M49.6632 43.6814H44.8096C44.1624 43.6814 43.6377 44.2061 43.6377 44.8533V54.5603C43.6377 55.2075 44.1624 55.7322 44.8096 55.7322H49.6632C50.3103 55.7322 50.835 55.2075 50.835 54.5603V44.8533C50.835 44.2061 50.3103 43.6814 49.6632 43.6814ZM48.4913 53.3884H45.9814V46.0251H48.4913V53.3884Z" fill="#A8302E"/>
<path d="M39.9561 43.6814C39.3089 43.6814 38.7842 44.2061 38.7842 44.8533V54.5603C38.8379 56.112 41.0746 56.1108 41.1279 54.5603V44.8533C41.1279 44.2061 40.6032 43.6814 39.9561 43.6814Z" fill="#A8302E"/>
</g>
<defs>
<clipPath id="clip0_673_208">
<rect width="80" height="80" fill="white"/>
</clipPath>
</defs>
</svg>
