<svg width="85" height="76" viewBox="0 0 85 76" fill="none" xmlns="http://www.w3.org/2000/svg">
<path d="M4 75.5999C1.33333 62.5332 0 51.0666 0 41.1999C0 13.9999 12.2667 0.399902 36.8 0.399902V13.9999C29.8667 13.9999 24.9333 15.7333 22 19.1999C19.0667 22.6666 17.6 27.9999 17.6 35.1999V44.7999H36.4V75.5999H4ZM52 75.5999C49.6 63.8666 48.4 52.3999 48.4 41.1999C48.4 13.9999 60.5333 0.399902 84.8 0.399902V13.9999C77.8667 13.9999 72.9333 15.7333 70 19.1999C67.3333 22.6666 66 27.9999 66 35.1999V44.7999H84.4V75.5999H52Z" fill="#D9D9D9" fill-opacity="0.36"/>
</svg>
